<?xml version="1.0" standalone="no"?>
<!DOCTYPE svg PUBLIC "-//W3C//DTD SVG 1.1//EN" "http://www.w3.org/Graphics/SVG/1.1/DTD/svg11.dtd" >
<svg xmlns="http://www.w3.org/2000/svg">
<metadata></metadata>
<defs>
<font id="alright_sansthin" horiz-adv-x="1148" >
<font-face units-per-em="2048" ascent="1556" descent="-492" />
<missing-glyph horiz-adv-x="526" />
<glyph horiz-adv-x="0" />
<glyph horiz-adv-x="682" />
<glyph unicode=" "  horiz-adv-x="526" />
<glyph unicode="&#x09;" horiz-adv-x="526" />
<glyph unicode="&#xa0;" horiz-adv-x="526" />
<glyph unicode="!" horiz-adv-x="477" d="M193 922v512h90v-512l-23 -514h-47zM197 0v190h84v-190h-84z" />
<glyph unicode="&#x22;" horiz-adv-x="782" d="M162 967v467h94l-43 -471zM528 967v467h95l-43 -471z" />
<glyph unicode="#" horiz-adv-x="1306" d="M80 301v66h291l59 370h-283v66h293l47 284h74l-47 -284h346l47 284h72l-47 -284h295v-66h-307l-62 -370h297v-66h-309l-49 -301h-72l49 301h-344l-49 -301h-70l49 301h-280zM442 367h344l62 370h-344z" />
<glyph unicode="$" horiz-adv-x="1056" d="M115 80l39 61q63 -40 157.5 -67.5t198.5 -30.5v477q-50 10 -81 17.5t-75.5 21.5t-72 28t-58.5 37t-48.5 50t-29.5 65t-12 84q0 123 99.5 203t275.5 86v219h61v-221q173 -5 330 -72l-31 -63q-132 59 -301 67v-462q49 -10 81 -17.5t76 -21.5t72.5 -29t60 -38.5t49.5 -51.5 t30 -66.5t12 -85.5q0 -127 -97 -206.5t-282 -86.5v-249h-61v247q-228 6 -393 105zM211 825q0 -46 17 -82t42 -59t67.5 -41.5t80 -28.5t92.5 -22v450q-143 -4 -221 -64t-78 -153zM567 43q151 7 227 68t76 159q0 46 -17 82.5t-42.5 60t-69 43t-81 30t-93.5 22.5v-465z" />
<glyph unicode="%" horiz-adv-x="1456" d="M119 842q0 112 78.5 190t191.5 78t191.5 -78t78.5 -190q0 -114 -78 -191.5t-192 -77.5t-192 77.5t-78 191.5zM182 842q0 -88 60 -148.5t149 -60.5q88 0 147.5 60.5t59.5 148.5t-59.5 147.5t-147.5 59.5q-89 0 -149 -59.5t-60 -147.5zM279 0l806 1087h76l-807 -1087h-75z M797 246q0 112 78 189t192 77q113 0 191.5 -77t78.5 -189q0 -114 -78.5 -192.5t-191.5 -78.5q-114 0 -192 78.5t-78 192.5zM858 246q0 -89 61 -149t150 -60q87 0 147 60t60 149q0 86 -60.5 146.5t-146.5 60.5q-89 0 -150 -60t-61 -147z" />
<glyph unicode="&#x26;" horiz-adv-x="1515" d="M100 391q0 140 87 256t227 193q-113 150 -113 295q0 133 96 228t250 95q206 0 328 -139l-53 -47q-100 119 -277 119q-119 0 -192.5 -75.5t-73.5 -180.5q0 -139 137 -297q118 -137 259.5 -261t324.5 -262q123 172 123 371h73q0 -225 -139 -414q39 -29 297 -215l-47 -59 q-243 174 -299 215q-101 -111 -238 -174.5t-290 -63.5q-116 0 -209 34.5t-151 93t-89 132.5t-31 156zM176 393q0 -68 26.5 -129.5t75.5 -111t128 -78.5t176 -29q134 0 256 56t213 155q-376 287 -596 532q-125 -65 -202 -168t-77 -227z" />
<glyph unicode="'" horiz-adv-x="415" d="M162 967v467h94l-43 -471z" />
<glyph unicode="(" horiz-adv-x="729" d="M131 567q0 544 401 979h95q-85 -86 -155.5 -183.5t-132 -219.5t-96 -270t-34.5 -306q0 -543 418 -977h-95q-86 96 -153.5 194t-126 219.5t-90 265t-31.5 298.5z" />
<glyph unicode=")" horiz-adv-x="729" d="M102 -410q418 434 418 977q0 158 -34.5 306t-96 270t-132 219.5t-155.5 183.5h95q401 -435 401 -979q0 -155 -31.5 -298.5t-90 -265t-126 -219.5t-153.5 -194h-95z" />
<glyph unicode="*" horiz-adv-x="854" d="M102 1081v84l301 -10v4l-118 275l77 24l84 -284l7 -3l223 197l49 -63l-246 -166v-6l260 -152l-49 -70l-233 181l-4 -2l-72 -291l-76 24l101 285l-3 4z" />
<glyph unicode="+" horiz-adv-x="1253" d="M109 481v74h481v481h76v-481h479v-74h-479v-481h-76v481h-481z" />
<glyph unicode="," horiz-adv-x="409" d="M68 -229q65 37 89.5 89.5t24.5 139.5h-20v197h86v-187q0 -112 -37.5 -178.5t-118.5 -103.5z" />
<glyph unicode="-" horiz-adv-x="755" d="M98 489v76h559v-76h-559z" />
<glyph unicode="." horiz-adv-x="409" d="M162 0v197h86v-197h-86z" />
<glyph unicode="/" horiz-adv-x="958" d="M-20 -410l915 1956h84l-916 -1956h-83z" />
<glyph unicode="0" horiz-adv-x="1314" d="M117 543q0 164 72.5 294.5t195.5 201.5t272 71t272 -71t196 -201.5t73 -294.5q0 -163 -73 -294t-196 -202.5t-272 -71.5q-111 0 -210.5 42t-172 116t-115 180.5t-42.5 229.5zM199 543q0 -141 59.5 -255t164.5 -178.5t234 -64.5q198 0 328.5 142t130.5 356 q0 215 -130.5 356t-328.5 141q-197 0 -327.5 -141t-130.5 -356z" />
<glyph unicode="1" horiz-adv-x="851" d="M162 950l311 140h72v-1090h-80v1008l-272 -121z" />
<glyph unicode="2" horiz-adv-x="1198" d="M150 0v45q-1 81 27 147t76 111.5t110.5 82.5t131.5 65t138 53.5t131.5 53t111 59.5t77 77t28.5 101q0 81 -51 138t-128.5 82t-172.5 25q-118 0 -233.5 -48t-188.5 -124l-51 54q84 83 214.5 135.5t256.5 52.5q119 0 216 -33.5t158.5 -105.5t61.5 -172q0 -84 -45.5 -148 t-118.5 -104.5t-161.5 -75l-177 -69t-162.5 -76t-120.5 -106.5t-48.5 -150h842v-70h-921z" />
<glyph unicode="3" horiz-adv-x="1159" d="M84 926q85 84 207.5 136t245.5 52q214 0 345.5 -102t131.5 -258q0 -136 -81.5 -223.5t-217.5 -118.5q152 -21 256 -109t104 -237q0 -102 -45.5 -185.5t-125 -138t-186.5 -84t-231 -29.5q-218 0 -393 82l31 68q176 -80 362 -80q220 0 363 100t143 269q0 62 -24 113.5 t-64.5 86t-95 58.5t-114.5 34.5t-124 10.5h-180v67h176q69 0 133.5 19.5t117.5 57t84.5 99t31.5 138.5q0 125 -109 208.5t-290 83.5q-114 0 -220.5 -47t-179.5 -123z" />
<glyph unicode="4" horiz-adv-x="1261" d="M70 78l776 1012h100v-1020h254v-70h-254v-346h-78v346h-774zM158 70h710v936z" />
<glyph unicode="5" horiz-adv-x="1144" d="M109 -287l32 68q164 -82 342 -82q213 0 349.5 109t136.5 292q0 166 -122 267.5t-323 101.5q-112 0 -295 -61l-55 38l21 641h763l3 -69h-695l-18 -543q163 64 289 64q230 0 371 -120t141 -319q0 -145 -74.5 -253t-202 -163t-289.5 -55q-217 0 -374 84z" />
<glyph unicode="6" horiz-adv-x="1267" d="M133 668q0 168 34 303.5t91.5 225t136.5 149.5t164.5 86t179.5 26q184 0 320 -63l-33 -66q-139 60 -287 60q-82 0 -156.5 -24t-143.5 -79t-119 -137.5t-79.5 -209t-27.5 -282.5q77 95 207 157.5t266 62.5q202 0 333.5 -121.5t131.5 -319.5q0 -123 -55.5 -226.5 t-167.5 -169t-260 -65.5q-113 0 -203.5 36t-151.5 98.5t-102 151t-59.5 189.5t-18.5 218zM215 582q8 -117 38 -212.5t84 -169t138.5 -114.5t192.5 -41q184 0 293.5 114.5t109.5 274.5q0 168 -111 272.5t-280 104.5q-136 0 -268.5 -66.5t-196.5 -162.5z" />
<glyph unicode="7" horiz-adv-x="1165" d="M96 1016v71h965v-57l-629 -1376h-88l633 1362h-881z" />
<glyph unicode="8" horiz-adv-x="1318" d="M121 362q0 78 32 143.5t89.5 112t130 77.5t159.5 48q-154 29 -248 118t-94 224q0 168 133 270.5t336 102.5q204 0 337.5 -102.5t133.5 -270.5q0 -135 -95 -224t-249 -118q87 -17 160 -48t131 -77.5t90.5 -112t32.5 -143.5q0 -180 -151 -283.5t-390 -103.5 q-238 0 -388 103.5t-150 283.5zM201 362q0 -145 128.5 -232t329.5 -87q202 0 331.5 87t129.5 232q0 76 -38 138.5t-103.5 104t-146.5 67t-173 35.5q-92 -10 -172 -35.5t-145 -67t-103 -104t-38 -138.5zM270 1085q0 -130 107 -210.5t282 -100.5q175 20 282.5 100.5 t107.5 210.5q0 136 -111.5 221t-278.5 85t-278 -85t-111 -221z" />
<glyph unicode="9" horiz-adv-x="1259" d="M111 649q0 92 32.5 174.5t92.5 146.5t153.5 102t206.5 38t203.5 -36t152.5 -98.5t103.5 -151t60.5 -190t19 -218.5q0 -168 -34.5 -303.5t-92 -224.5t-137 -149t-166 -86t-181.5 -26q-195 3 -344 90l39 62q132 -82 305 -82q83 0 158 23.5t144.5 78.5t119.5 137t80 207.5 t29 282.5q-79 -94 -209.5 -156.5t-265.5 -62.5q-205 0 -337 121.5t-132 320.5zM186 649q0 -167 113.5 -271t286.5 -104q137 0 269.5 67t195.5 161q-8 117 -38.5 212.5t-85 169.5t-139.5 115t-194 41q-186 0 -297 -115t-111 -276z" />
<glyph unicode=":" horiz-adv-x="409" d="M162 0v197h86v-197h-86zM162 840v196h86v-196h-86z" />
<glyph unicode=";" horiz-adv-x="409" d="M68 -229q65 37 89.5 89.5t24.5 139.5h-20v197h86v-187q0 -112 -37.5 -178.5t-118.5 -103.5zM162 840v196h86v-196h-86z" />
<glyph unicode="&#x3c;" horiz-adv-x="1314" d="M90 477v80l1086 479v-88l-996 -430l996 -432v-86z" />
<glyph unicode="=" horiz-adv-x="1253" d="M109 238v73h1036v-73h-1036zM109 727v74h1036v-74h-1036z" />
<glyph unicode="&#x3e;" horiz-adv-x="1314" d="M139 0v86l996 432l-996 430v88l1086 -479v-80z" />
<glyph unicode="?" horiz-adv-x="1024" d="M90 1286q162 172 391 172q193 0 310.5 -99t117.5 -253q0 -76 -24.5 -137.5t-64.5 -103t-87.5 -78.5t-95.5 -72t-88 -73t-65 -92.5t-25 -121.5v-20h-68v24q0 77 24 139t63 104t85.5 78t93 70.5t85.5 71.5t63 90.5t24 118.5q0 122 -97 203.5t-253 81.5q-188 0 -336 -152z M383 0v190h84v-190h-84z" />
<glyph unicode="@" horiz-adv-x="1718" d="M141 569q0 152 59 289.5t158.5 237.5t238.5 158.5t292 58.5q202 0 359.5 -86.5t243 -238t85.5 -341.5q0 -114 -33.5 -209.5t-88.5 -156.5t-123.5 -95t-139.5 -34q-89 0 -138 52t-46 132q-48 -70 -121 -113t-156 -43q-106 0 -169.5 74t-63.5 197q0 70 18 142.5t55 139.5 t87 120t119 84.5t147 31.5q127 0 211 -109l24 88h64l-144 -512q-32 -98 -1 -163.5t120 -65.5q59 0 116 31t102.5 86t73.5 139.5t28 183.5q0 268 -174 437t-455 169q-186 0 -344.5 -91.5t-251 -249.5t-92.5 -343q0 -138 54.5 -264.5t147 -218t219.5 -145.5t267 -54 q184 0 348 95l33 -52q-175 -102 -381 -102q-153 0 -292 58.5t-238.5 158t-158.5 236.5t-59 288zM567 455q0 -99 45.5 -157t128.5 -58q91 0 170 62t113 177l94 328q-77 102 -194 102q-64 0 -122 -29t-99.5 -76.5t-73 -106.5t-47 -121.5t-15.5 -120.5z" />
<glyph unicode="A" horiz-adv-x="1372" d="M76 0l559 1434h104l557 -1434h-92l-153 408h-729l-154 -408h-92zM348 477h676l-336 887h-4z" />
<glyph unicode="B" horiz-adv-x="1376" d="M190 0v1434h543q220 0 333.5 -102t113.5 -257q0 -131 -71 -218.5t-187 -119.5q145 -29 231 -117.5t86 -226.5q0 -188 -119 -290.5t-334 -102.5h-596zM270 70h516q179 0 276 84.5t97 240.5q0 141 -105 221t-270 80h-514v-626zM270 766h461q182 0 275.5 86.5t93.5 218.5 q0 127 -93.5 210t-275.5 83h-461v-598z" />
<glyph unicode="C" horiz-adv-x="1460" d="M129 735q0 160 52 295t144.5 229t224.5 146.5t288 52.5q123 0 239 -35.5t205 -101.5l-45 -64q-82 62 -185.5 95.5t-213.5 33.5q-280 0 -453.5 -180t-173.5 -471q0 -204 77.5 -360.5t220 -242t329.5 -85.5q123 0 235.5 41t190.5 113l51 -56q-90 -83 -214 -126.5 t-265 -43.5q-319 0 -513 208.5t-194 551.5z" />
<glyph unicode="D" horiz-adv-x="1443" d="M190 0v1434h377q362 0 555 -185t193 -514q0 -351 -188 -543t-560 -192h-377zM270 72h299q331 0 497.5 173t166.5 490q0 295 -171 461t-493 166h-299v-1290z" />
<glyph unicode="E" horiz-adv-x="1296" d="M190 0v1434h943v-72h-863v-596h779v-70h-779v-624h877v-72h-957z" />
<glyph unicode="F" horiz-adv-x="1255" d="M190 0v1434h924v-72h-844v-600h758v-72h-758v-690h-80z" />
<glyph unicode="G" horiz-adv-x="1480" d="M129 735q0 214 89 378.5t250 254.5t370 90q257 0 446 -115l-41 -63q-168 106 -405 106q-280 0 -453.5 -180t-173.5 -471q0 -316 168 -502t459 -186q117 0 221.5 28t175.5 75v499h-453v68h529v-608q-93 -63 -216.5 -98.5t-256.5 -35.5q-326 0 -517.5 206t-191.5 554z" />
<glyph unicode="H" horiz-adv-x="1421" d="M190 0v1434h80v-668h881v668h80v-1434h-80v694h-881v-694h-80z" />
<glyph unicode="I" horiz-adv-x="460" d="M190 0v1434h80v-1434h-80z" />
<glyph unicode="J" horiz-adv-x="1155" d="M117 279l71 28q17 -50 43.5 -93t67 -82.5t100.5 -62t133 -22.5q179 0 269 113t90 305v969h80v-971q0 -226 -110 -357t-326 -131q-87 0 -160 26.5t-123 72t-82.5 96.5t-52.5 109z" />
<glyph unicode="K" horiz-adv-x="1347" d="M190 0v1434h80v-906l807 906h103l-473 -529l532 -905h-98l-486 846l-385 -430v-416h-80z" />
<glyph unicode="L" horiz-adv-x="1234" d="M190 0v1434h80v-1362h863v-72h-943z" />
<glyph unicode="M" horiz-adv-x="1726" d="M190 0v1434h109l563 -838l565 838h109v-1434h-80v1341l-594 -876l-594 878v-1343h-78z" />
<glyph unicode="N" horiz-adv-x="1462" d="M190 0v1434h99l903 -1332v1332h80v-1434h-101l-903 1329v-1329h-78z" />
<glyph unicode="O" horiz-adv-x="1652" d="M129 729q0 162 55 300t149.5 231t221.5 145.5t270 52.5q144 0 271.5 -52.5t222.5 -146t150 -231t55 -299.5q0 -172 -54 -315t-148 -238.5t-222 -148t-275 -52.5q-146 0 -273.5 52.5t-221 148t-147.5 238.5t-54 315zM211 729q0 -156 47.5 -285.5t130.5 -216t195 -133.5 t241 -47q130 0 242.5 47t195.5 133.5t131 216t48 285.5q0 145 -49 269.5t-132.5 208.5t-196.5 131.5t-239 47.5q-125 0 -237.5 -47.5t-195.5 -131.5t-132 -208.5t-49 -269.5z" />
<glyph unicode="P" horiz-adv-x="1335" d="M190 0v1434h549q99 0 178.5 -23.5t131 -62.5t86 -93t49 -111t14.5 -120q0 -60 -15 -116.5t-50 -111t-87 -95.5t-132 -66t-179 -25h-465v-610h-80zM270 680h465q102 0 179 30.5t120 82t63.5 109.5t20.5 122q0 52 -12 99.5t-40.5 92t-71 77t-108 52t-147.5 19.5h-469v-684z " />
<glyph unicode="Q" horiz-adv-x="1671" d="M129 729q0 162 55 300t149.5 231t221.5 145.5t270 52.5q144 0 271.5 -52.5t222.5 -146t150 -231t55 -299.5q0 -321 -181 -528l201 -174l-49 -54l-201 177q-190 -175 -469 -175q-146 0 -273.5 52.5t-221 148t-147.5 238.5t-54 315zM211 729q0 -156 47.5 -285.5t130.5 -216 t195 -133.5t241 -47q242 0 412 156l-285 248l49 55l283 -254q158 185 158 477q0 145 -49 269.5t-132.5 208.5t-196.5 131.5t-239 47.5q-125 0 -237.5 -47.5t-195.5 -131.5t-132 -208.5t-49 -269.5z" />
<glyph unicode="R" horiz-adv-x="1366" d="M190 0v1434h572q122 0 214 -35t143.5 -95t76.5 -130.5t25 -149.5q0 -142 -84.5 -255.5t-253.5 -145.5l329 -623h-92l-317 612h-41h-492v-612h-80zM270 680h488q101 0 177.5 30.5t120 82t64.5 110t21 121.5q0 52 -12 99.5t-40.5 92t-71 77t-108.5 52t-147 19.5h-492v-684z " />
<glyph unicode="S" horiz-adv-x="1232" d="M121 115l43 65q79 -56 201 -94.5t256 -38.5q201 0 304 85t103 222q0 66 -26.5 118t-55.5 81.5t-99 58.5t-106.5 39t-127.5 32q-92 23 -139.5 36.5t-121.5 46t-111 70.5t-66.5 102.5t-29.5 148.5q0 161 125.5 266t339.5 105q251 0 443 -100l-35 -68q-188 96 -406 96 q-178 0 -281.5 -83.5t-103.5 -215.5q0 -77 30 -133t81.5 -88.5t117.5 -56t139 -40t146.5 -34.5t139.5 -46.5t117.5 -68.5t81.5 -107.5t30 -158.5q0 -170 -124 -274.5t-365 -104.5q-147 0 -281 40.5t-219 99.5z" />
<glyph unicode="T" horiz-adv-x="1310" d="M66 1360v74h1179v-74h-551v-1360h-80v1360h-548z" />
<glyph unicode="U" horiz-adv-x="1454" d="M184 520v914h80v-914q0 -223 132 -348t331 -125t331 125t132 348v914h80v-914q0 -132 -42.5 -236.5t-116.5 -171.5t-172 -102t-212 -35t-212 35t-172 102t-116.5 171.5t-42.5 236.5z" />
<glyph unicode="V" horiz-adv-x="1335" d="M76 1434h90l500 -1352h4l499 1352h88l-542 -1434h-97z" />
<glyph unicode="W" horiz-adv-x="2080" d="M78 1434h88l420 -1340h4l403 1340h94l404 -1340h4l422 1340h86l-461 -1434h-98l-402 1331h-4l-401 -1331h-98z" />
<glyph unicode="X" horiz-adv-x="1357" d="M94 0l535 733l-512 701h102l461 -641l461 641h100l-512 -701l537 -733h-105l-483 672l-481 -672h-103z" />
<glyph unicode="Y" horiz-adv-x="1310" d="M76 1434h98l479 -770h4l480 770h98l-539 -844v-590h-82v590z" />
<glyph unicode="Z" horiz-adv-x="1314" d="M129 0v84l948 1276h-948v74h1038v-84l-946 -1276h967v-74h-1059z" />
<glyph unicode="[" horiz-adv-x="720" d="M182 -410v1956h398v-65h-320v-1825h320v-66h-398z" />
<glyph unicode="\" horiz-adv-x="958" d="M-20 1546h83l916 -1956h-84z" />
<glyph unicode="]" horiz-adv-x="720" d="M141 -344h320v1825h-320v65h398v-1956h-398v66z" />
<glyph unicode="^" horiz-adv-x="1050" d="M203 1151l284 348h74l287 -348h-80l-244 256l-243 -256h-78z" />
<glyph unicode="_" horiz-adv-x="1110" d="M0 -25h1110v-73h-1110v73z" />
<glyph unicode="`" horiz-adv-x="1337" d="M496 1438l63 49l283 -338h-60z" />
<glyph unicode="a" horiz-adv-x="1032" d="M109 223q0 315 651 342v203q0 100 -62 161.5t-188 61.5q-160 0 -328 -92l-35 68q75 40 172 66t191 26q166 0 247 -79t81 -212v-582q0 -61 30.5 -93t85.5 -32v-61q-163 0 -188 143q-59 -73 -155.5 -120.5t-209.5 -47.5q-131 0 -211.5 67.5t-80.5 180.5zM188 225 q0 -84 61 -133t163 -49q113 0 206 49t142 121v293q-572 -23 -572 -281z" />
<glyph unicode="b" horiz-adv-x="1173" d="M188 0v1546h80v-659q165 172 350 172q196 0 313.5 -142.5t117.5 -384.5q0 -256 -113 -406.5t-315 -150.5q-198 0 -357 181l-10 -156h-66zM268 231q156 -188 342 -188q170 0 264.5 132.5t94.5 356.5q0 211 -97.5 335t-263.5 124q-177 0 -340 -184v-576z" />
<glyph unicode="c" horiz-adv-x="1030" d="M125 532q0 241 130 384t339 143q186 0 307 -94l-45 -60q-117 86 -262 86q-173 0 -281 -125.5t-108 -333.5q0 -224 105.5 -355.5t283.5 -131.5q90 0 155.5 26t127.5 76l49 -53q-69 -59 -147 -89t-185 -30q-213 0 -341 150t-128 407z" />
<glyph unicode="d" horiz-adv-x="1173" d="M125 532q0 242 118 384.5t314 142.5q185 0 350 -172v659h78v-1546h-61l-15 156q-159 -181 -354 -181q-203 0 -316.5 150t-113.5 407zM205 532q0 -223 94.5 -356t263.5 -133q185 0 344 188v576q-166 184 -342 184q-166 0 -263 -124t-97 -335z" />
<glyph unicode="e" horiz-adv-x="1136" d="M125 532q0 239 134 384t343 145q103 0 181 -34t126 -95t71.5 -141t23.5 -177q0 -25 -5 -65h-794v-17q0 -232 101 -360.5t300 -128.5q84 0 169.5 29.5t148.5 74.5l41 -59q-69 -50 -165.5 -81.5t-195.5 -31.5q-234 0 -356.5 146.5t-122.5 410.5zM209 610h717v17 q0 71 -15 131q-17 68 -54 121.5t-101.5 83.5t-151.5 30q-159 0 -266 -103t-129 -280z" />
<glyph unicode="f" horiz-adv-x="712" d="M53 967v67h197v127q0 395 379 395q56 0 110 -14l-18 -65q-32 12 -92 12q-144 0 -221.5 -76t-77.5 -252v-127h305v-67h-305v-967h-80v967h-197z" />
<glyph unicode="g" horiz-adv-x="1140" d="M86 -160q0 158 205 234q-98 51 -98 149q0 43 25.5 82.5t66.5 65.5q-81 51 -127.5 132.5t-46.5 180.5q0 161 119 268t294 107q148 0 264 -82q118 84 273 84h18v-68h-28q-144 0 -224 -47q113 -110 113 -262q0 -164 -121 -272.5t-295 -108.5q-107 0 -194 41 q-70 -43 -70 -108q0 -23 6.5 -42t22 -33t30.5 -24.5t44 -17.5t49 -11.5t58.5 -8t61 -5.5t66.5 -4q459 -23 459 -252q0 -130 -128 -199t-370 -69q-225 0 -349 71t-124 199zM164 -158q0 -99 103.5 -154t291.5 -55q201 0 311.5 52t110.5 149q0 171 -401 189q-117 3 -215 26 q-90 -26 -145.5 -79.5t-55.5 -127.5zM188 684q0 -134 97 -224.5t239 -90.5q143 0 241.5 90.5t98.5 224.5q0 132 -98.5 221.5t-241.5 89.5q-141 0 -238.5 -89.5t-97.5 -221.5z" />
<glyph unicode="h" horiz-adv-x="1157" d="M188 0v1546h80v-674q78 87 178.5 138t215.5 51q319 0 319 -340v-721h-80v721q0 272 -250 272q-214 0 -383 -200v-793h-80z" />
<glyph unicode="i" horiz-adv-x="456" d="M188 0v1034h80v-1034h-80zM188 1362v147h80v-147h-80z" />
<glyph unicode="j" horiz-adv-x="473" d="M-78 -420l15 68q24 -8 63 -8q94 0 149.5 68t55.5 214v1112h80v-1110q0 -184 -76 -269t-207 -85q-42 0 -80 10zM205 1360v149h80v-149h-80z" />
<glyph unicode="k" horiz-adv-x="1030" d="M188 0v1546h80v-1108l545 596h96l-309 -334l373 -700h-90l-334 645l-281 -303v-342h-80z" />
<glyph unicode="l" horiz-adv-x="456" d="M188 0v1546h80v-1546h-80z" />
<glyph unicode="m" horiz-adv-x="1789" d="M180 0v1034h72l8 -149q172 176 375 176q223 0 283 -187q180 187 391 187q159 0 232 -90t73 -250v-721h-78v723q0 268 -238 268q-203 0 -364 -182q6 -43 6 -90v-719h-80v723q0 268 -235 268q-211 0 -365 -188v-803h-80z" />
<glyph unicode="n" d="M180 0v1034h72l8 -160q176 187 393 187q320 0 320 -340v-721h-80v721q0 272 -250 272q-218 0 -383 -202v-791h-80z" />
<glyph unicode="o" horiz-adv-x="1210" d="M125 532q0 238 135.5 382.5t345.5 144.5q209 0 343 -144.5t134 -382.5q0 -255 -131 -406t-346 -151q-217 0 -349 151t-132 406zM205 532q0 -222 109.5 -355.5t291.5 -133.5q179 0 288.5 133.5t109.5 355.5q0 205 -112 332t-286 127q-175 0 -288 -127t-113 -332z" />
<glyph unicode="p" horiz-adv-x="1173" d="M188 -410v1444h66l10 -151q165 176 352 176q196 0 314.5 -142.5t118.5 -384.5q0 -256 -114 -406.5t-317 -150.5q-193 0 -350 177v-562h-80zM268 231q156 -188 342 -188q170 0 264.5 132.5t94.5 356.5q0 211 -97.5 335t-263.5 124q-181 0 -340 -184v-576z" />
<glyph unicode="q" horiz-adv-x="1173" d="M125 532q0 242 118 384.5t314 142.5q185 0 350 -176l13 151h65v-1444h-78v562q-163 -177 -352 -177q-203 0 -316.5 150t-113.5 407zM205 532q0 -223 94.5 -356t263.5 -133q185 0 344 188v576q-166 184 -342 184q-165 0 -262.5 -124.5t-97.5 -334.5z" />
<glyph unicode="r" horiz-adv-x="763" d="M180 0v1034h70l10 -182q123 209 332 209q69 0 123 -14l-17 -78q-62 16 -112 16q-197 0 -326 -219v-766h-80z" />
<glyph unicode="s" horiz-adv-x="907" d="M90 70l39 61q57 -36 144.5 -62t179.5 -26q138 0 211 57t73 152q0 67 -35 112t-91 68t-123.5 40t-135.5 37t-124 48.5t-91 85t-35 137.5q0 123 94 201t250 78q184 0 324 -72l-33 -65q-58 30 -136.5 49.5t-154.5 19.5q-122 0 -194 -58.5t-72 -150.5q0 -59 27.5 -101t72 -64 t101.5 -40.5t116.5 -30t116.5 -33.5t101.5 -51t72 -82t27.5 -126q0 -129 -92.5 -204t-267.5 -75q-107 0 -204 27.5t-161 67.5z" />
<glyph unicode="t" horiz-adv-x="731" d="M53 969v65h197v340h80v-340h307v-65h-307v-713q0 -106 40 -159.5t136 -53.5q77 0 149 45l33 -55q-86 -58 -186 -58q-133 0 -192.5 71t-59.5 210v713h-197z" />
<glyph unicode="u" d="M176 315v719h80v-721q0 -130 58 -200t192 -70q219 0 383 201v790h80v-1034h-66l-12 160q-181 -185 -395 -185q-170 0 -245 89t-75 251z" />
<glyph unicode="v" horiz-adv-x="970" d="M57 1034h88l338 -944h4l342 944h84l-385 -1034h-86z" />
<glyph unicode="w" horiz-adv-x="1611" d="M57 1034h84l320 -946h2l301 946h82l303 -946h2l315 946h86l-356 -1034h-94l-295 930h-4l-295 -930h-94z" />
<glyph unicode="x" horiz-adv-x="991" d="M70 0l379 524l-357 510h92l312 -452l311 452h92l-354 -510l375 -524h-93l-331 469l-332 -469h-94z" />
<glyph unicode="y" horiz-adv-x="972" d="M45 -406l25 68q49 -22 104 -22q69 0 114 31t77 116l84 221l-392 1026h88l342 -919h5l337 919h86l-475 -1263q-42 -111 -106.5 -156t-157.5 -45q-68 0 -131 24z" />
<glyph unicode="z" horiz-adv-x="989" d="M115 0v68l657 899h-641v67h739v-63l-657 -903h680v-68h-778z" />
<glyph unicode="{" horiz-adv-x="858" d="M70 516v76h71q113 0 157 49.5t44 163.5v475q0 266 279 266h106v-63h-104q-105 0 -153 -49.5t-48 -155.5v-467q0 -112 -43 -175t-117 -79v-2q160 -39 160 -256v-440q0 -106 48 -155.5t153 -49.5h104v-64h-106q-279 0 -279 267v446q0 114 -44 163.5t-157 49.5h-71z" />
<glyph unicode="|" horiz-adv-x="522" d="M221 -410v1956h78v-1956h-78z" />
<glyph unicode="}" horiz-adv-x="858" d="M131 -346h105q105 0 152.5 49.5t47.5 155.5v440q0 217 160 256v2q-74 16 -117 79t-43 175v467q0 106 -47.5 155.5t-152.5 49.5h-105v63h107q278 0 278 -266v-475q0 -114 44 -163.5t157 -49.5h71v-76h-71q-113 0 -157 -49.5t-44 -163.5v-446q0 -267 -278 -267h-107v64z " />
<glyph unicode="~" horiz-adv-x="1163" d="M160 444q0 117 55.5 181.5t149.5 64.5q46 0 95.5 -25.5t91.5 -61.5t82.5 -72t83 -61.5t79.5 -25.5q66 0 105 50.5t32 156.5h67q3 -24 3 -35q0 -117 -55.5 -182t-149.5 -65q-46 0 -94.5 25t-90.5 61t-82.5 72.5t-83.5 61.5t-81 25q-66 0 -105.5 -49.5t-32.5 -154.5h-67 q-2 14 -2 34z" />
<glyph unicode="&#xa2;" horiz-adv-x="1173" d="M102 559q0 246 161 399.5t419 153.5q8 0 24.5 -1t24.5 -1l51 221h64l-51 -229q137 -21 252 -96l-41 -58q-104 68 -230 86l-219 -979q59 -12 125 -12q101 0 192.5 30.5t153.5 86.5l47 -54q-73 -64 -175.5 -97.5t-217.5 -33.5q-67 0 -137 13l-60 -260h-65l65 274 q-179 53 -281 200t-102 357zM180 559q0 -183 85 -311t237 -178l217 970q-12 2 -37 2q-224 0 -363 -133t-139 -350z" />
<glyph unicode="&#xa3;" horiz-adv-x="1132" d="M88 156q0 77 57 128.5t144 51.5q61 0 118 -27t123 -76q5 30 5 39q0 67 -23.5 124t-67.5 126l-12 19h-223v61h182q-90 140 -90 256q0 110 76.5 181t210.5 71q112 0 184 -47t107 -111l-68 -30q-71 120 -221 120q-100 0 -155.5 -51t-55.5 -133q0 -47 15.5 -95t33.5 -79.5 t51 -83.5h269v-59h-230q90 -140 90 -265q0 -45 -14 -92q82 -67 147.5 -103t137.5 -36q75 0 115 45.5t40 136.5h74q3 -122 -54.5 -187t-166.5 -65q-86 0 -159.5 39t-162.5 111q-43 -71 -121 -110.5t-153 -39.5q-93 0 -148 52t-55 129zM152 156q0 -49 36 -85t99 -36 q62 0 126.5 35.5t96.5 99.5q-67 52 -118.5 79t-104.5 27q-58 0 -96.5 -35.5t-38.5 -84.5z" />
<glyph unicode="&#xa5;" horiz-adv-x="1128" d="M74 1087h96l391 -552l397 552h97l-453 -626h387v-60h-387v-147h387v-61h-387v-193h-80v193h-391v61h391v147h-391v60h391z" />
<glyph unicode="&#xa8;" horiz-adv-x="1343" d="M449 1251v115h90v-115h-90zM803 1251v115h90v-115h-90z" />
<glyph unicode="&#xa9;" horiz-adv-x="1792" d="M150 569q0 152 58.5 289.5t158 237t237.5 158.5t291 59t291 -59t238 -158.5t159 -237t59 -289.5q0 -151 -59 -288.5t-159 -236.5t-238 -157.5t-291 -58.5q-152 0 -290.5 58.5t-238 158t-158 236.5t-58.5 288zM209 569q0 -138 54.5 -264.5t146 -218t218.5 -145.5t267 -54 t267.5 54t219.5 145.5t146.5 218t54.5 264.5q0 139 -54.5 265.5t-146.5 218t-219.5 146t-267.5 54.5q-186 0 -344 -91.5t-250 -249.5t-92 -343zM487 567q0 181 121 299.5t303 118.5q150 0 263 -78l-39 -53q-95 70 -222 70q-154 0 -255 -101.5t-101 -255.5q0 -164 99 -262 t257 -98q69 0 131.5 21.5t104.5 60.5l41 -45q-50 -47 -123.5 -74t-155.5 -27q-187 0 -305.5 116.5t-118.5 307.5z" />
<glyph unicode="&#xaa;" horiz-adv-x="745" d="M84 866q0 222 451 240v133q0 66 -41.5 105.5t-126.5 39.5q-114 0 -230 -63l-26 57q124 66 256 66q118 0 175.5 -56t57.5 -149v-395q0 -42 21 -64t59 -22v-51q-114 0 -139 94q-41 -48 -107 -79.5t-141 -31.5q-95 0 -152 47.5t-57 128.5zM150 868q0 -57 41 -90t110 -33 q73 0 136.5 32.5t97.5 80.5v195q-71 -2 -132 -10.5t-121.5 -28t-96 -57t-35.5 -89.5z" />
<glyph unicode="&#xab;" horiz-adv-x="1189" d="M109 518l413 518l58 -47l-379 -471l379 -473l-58 -45zM590 518l414 518l57 -47l-379 -471l379 -473l-57 -45z" />
<glyph unicode="&#xac;" horiz-adv-x="1212" d="M131 1014v73h950v-485h-82v412h-868z" />
<glyph unicode="&#xad;" horiz-adv-x="755" d="M98 489v76h559v-76h-559z" />
<glyph unicode="&#xae;" horiz-adv-x="1792" d="M150 569q0 152 58.5 289.5t158 237t237.5 158.5t291 59t291 -59t238 -158.5t159 -237t59 -289.5q0 -151 -59 -288.5t-159 -236.5t-238 -157.5t-291 -58.5q-152 0 -290.5 58.5t-238 158t-158 236.5t-58.5 288zM209 569q0 -138 54 -264t145.5 -217t219 -145t267.5 -54 q186 0 344 91t250 248t92 341q0 185 -92 343t-250 249.5t-344 91.5q-140 0 -267.5 -54.5t-219 -146t-145.5 -218t-54 -265.5zM596 166v805h365q148 0 218 -69t70 -171q0 -79 -51 -143t-156 -84q202 -338 203 -338h-84l-188 330h-307v-330h-70zM666 555h288q117 0 172.5 53 t55.5 123q0 75 -54 126.5t-170 51.5h-292v-354z" />
<glyph unicode="&#xb1;" horiz-adv-x="1253" d="M109 0v68h481v434h-481v73h481v461h76v-461h479v-73h-479v-434h479v-68h-1036z" />
<glyph unicode="&#xb4;" horiz-adv-x="1337" d="M496 1149l284 338l62 -49l-287 -289h-59z" />
<glyph unicode="&#xb5;" horiz-adv-x="1056" d="M131 -410v1497h80v-796q10 -248 250 -248q218 0 385 201v843h80v-1087h-70l-10 160q-174 -185 -383 -185q-109 0 -169 39t-85 113l-8 -537h-70z" />
<glyph unicode="&#xb8;" horiz-adv-x="1337" d="M528 -399q216 177 254 403h58q-13 -121 -76 -234t-164 -204z" />
<glyph unicode="&#xba;" horiz-adv-x="864" d="M92 1075q0 167 95 268t243 101t243 -101t95 -268q0 -176 -93 -280.5t-245 -104.5q-153 0 -245.5 104.5t-92.5 280.5zM158 1075q0 -149 74 -238t198 -89q122 0 196 89t74 238q0 139 -75.5 225t-194.5 86t-195.5 -86t-76.5 -225z" />
<glyph unicode="&#xbb;" horiz-adv-x="1189" d="M129 45l379 473l-379 471l57 47l414 -518l-414 -518zM610 45l379 473l-379 471l58 47l413 -518l-413 -518z" />
<glyph unicode="&#xc1;" horiz-adv-x="1372" d="M76 0l559 1434h104l557 -1434h-92l-153 408h-729l-154 -408h-92zM348 477h676l-336 887h-4zM635 1546l223 244l68 -55l-226 -189h-65z" />
<glyph unicode="&#xc9;" horiz-adv-x="1296" d="M190 0v1434h943v-72h-863v-596h779v-70h-779v-624h877v-72h-957zM618 1546l224 244l67 -55l-225 -189h-66z" />
<glyph unicode="&#xcd;" horiz-adv-x="460" d="M180 1546l223 244l68 -55l-225 -189h-66zM190 0v1434h80v-1434h-80z" />
<glyph unicode="&#xd3;" horiz-adv-x="1652" d="M129 729q0 162 55 300t149.5 231t221.5 145.5t270 52.5q144 0 271.5 -52.5t222.5 -146t150 -231t55 -299.5q0 -172 -54 -315t-148 -238.5t-222 -148t-275 -52.5q-146 0 -273.5 52.5t-221 148t-147.5 238.5t-54 315zM211 729q0 -156 47.5 -285.5t130.5 -216t195 -133.5 t241 -47q130 0 242.5 47t195.5 133.5t131 216t48 285.5q0 145 -49 269.5t-132.5 208.5t-196.5 131.5t-239 47.5q-125 0 -237.5 -47.5t-195.5 -131.5t-132 -208.5t-49 -269.5zM776 1546l223 244l68 -55l-225 -189h-66z" />
<glyph unicode="&#xd6;" horiz-adv-x="1652" d="M129 729q0 162 55 300t149.5 231t221.5 145.5t270 52.5q144 0 271.5 -52.5t222.5 -146t150 -231t55 -299.5q0 -172 -54 -315t-148 -238.5t-222 -148t-275 -52.5q-146 0 -273.5 52.5t-221 148t-147.5 238.5t-54 315zM211 729q0 -156 47.5 -285.5t130.5 -216t195 -133.5 t241 -47q130 0 242.5 47t195.5 133.5t131 216t48 285.5q0 145 -49 269.5t-132.5 208.5t-196.5 131.5t-239 47.5q-125 0 -237.5 -47.5t-195.5 -131.5t-132 -208.5t-49 -269.5zM596 1595v115h90v-115h-90zM969 1595v115h90v-115h-90z" />
<glyph unicode="&#xda;" horiz-adv-x="1454" d="M184 520v914h80v-914q0 -223 132 -348t331 -125t331 125t132 348v914h80v-914q0 -132 -42.5 -236.5t-116.5 -171.5t-172 -102t-212 -35t-212 35t-172 102t-116.5 171.5t-42.5 236.5zM678 1546l223 244l68 -55l-226 -189h-65z" />
<glyph unicode="&#xdc;" horiz-adv-x="1454" d="M184 520v914h80v-914q0 -223 132 -348t331 -125t331 125t132 348v914h80v-914q0 -132 -42.5 -236.5t-116.5 -171.5t-172 -102t-212 -35t-212 35t-172 102t-116.5 171.5t-42.5 236.5zM498 1595v115h90v-115h-90zM870 1595v115h91v-115h-91z" />
<glyph unicode="&#xe1;" horiz-adv-x="1032" d="M109 223q0 315 651 342v203q0 100 -62 161.5t-188 61.5q-160 0 -328 -92l-35 68q75 40 172 66t191 26q166 0 247 -79t81 -212v-582q0 -61 30.5 -93t85.5 -32v-61q-163 0 -188 143q-59 -73 -155.5 -120.5t-209.5 -47.5q-131 0 -211.5 67.5t-80.5 180.5zM188 225 q0 -84 61 -133t163 -49q113 0 206 49t142 121v293q-572 -23 -572 -281zM477 1149l285 338l61 -49l-286 -289h-60z" />
<glyph unicode="&#xe9;" horiz-adv-x="1136" d="M125 532q0 239 134 384t343 145q103 0 181 -34t126 -95t71.5 -141t23.5 -177q0 -25 -5 -65h-794v-17q0 -232 101 -360.5t300 -128.5q84 0 169.5 29.5t148.5 74.5l41 -59q-69 -50 -165.5 -81.5t-195.5 -31.5q-234 0 -356.5 146.5t-122.5 410.5zM209 610h717 q2 81 -15 148.5t-54 121t-101.5 83.5t-151.5 30q-159 0 -266 -103t-129 -280zM543 1149l284 338l62 -49l-287 -289h-59z" />
<glyph unicode="&#xed;" horiz-adv-x="456" d="M174 1149l285 338l61 -49l-287 -289h-59zM188 0v1034h80v-1034h-80z" />
<glyph unicode="&#xf3;" horiz-adv-x="1210" d="M125 532q0 238 135.5 382.5t345.5 144.5q209 0 343 -144.5t134 -382.5q0 -255 -131 -406t-346 -151q-217 0 -349 151t-132 406zM205 532q0 -222 109.5 -355.5t291.5 -133.5q179 0 288.5 133.5t109.5 355.5q0 205 -112 332t-286 127q-175 0 -288 -127t-113 -332zM551 1149 l285 338l61 -49l-287 -289h-59z" />
<glyph unicode="&#xf6;" horiz-adv-x="1210" d="M125 532q0 238 135.5 382.5t345.5 144.5q209 0 343 -144.5t134 -382.5q0 -255 -131 -406t-346 -151q-217 0 -349 151t-132 406zM205 532q0 -222 109.5 -355.5t291.5 -133.5q179 0 288.5 133.5t109.5 355.5q0 205 -112 332t-286 127q-175 0 -288 -127t-113 -332zM383 1251 v115h90v-115h-90zM737 1251v115h90v-115h-90z" />
<glyph unicode="&#xf7;" horiz-adv-x="1253" d="M109 481v74h1036v-74h-1036zM588 55v178h76v-178h-76zM588 805v178h76v-178h-76z" />
<glyph unicode="&#xfa;" d="M176 315v719h80v-721q0 -130 58 -200t192 -70q219 0 383 201v790h80v-1034h-66l-12 160q-181 -185 -395 -185q-170 0 -245 89t-75 251zM520 1149l285 338l61 -49l-286 -289h-60z" />
<glyph unicode="&#xfc;" d="M176 315v719h80v-721q0 -130 58 -200t192 -70q219 0 383 201v790h80v-1034h-66l-12 160q-181 -185 -395 -185q-170 0 -245 89t-75 251zM350 1251v115h90v-115h-90zM705 1251v115h90v-115h-90z" />
<glyph unicode="&#x100;" horiz-adv-x="1372" d="M76 0l559 1434h104l557 -1434h-92l-153 408h-729l-154 -408h-92zM348 477h676l-336 887h-4zM406 1620v66h561v-66h-561z" />
<glyph unicode="&#x101;" horiz-adv-x="1032" d="M109 223q0 315 651 342v203q0 100 -62 161.5t-188 61.5q-160 0 -328 -92l-35 68q75 40 172 66t191 26q166 0 247 -79t81 -212v-582q0 -61 30.5 -93t85.5 -32v-61q-163 0 -188 143q-59 -73 -155.5 -120.5t-209.5 -47.5q-131 0 -211.5 67.5t-80.5 180.5zM188 225 q0 -84 61 -133t163 -49q113 0 206 49t142 121v293q-572 -23 -572 -281zM250 1274v67h559v-67h-559z" />
<glyph unicode="&#x102;" horiz-adv-x="1372" d="M76 0l559 1434h104l557 -1434h-92l-153 408h-729l-154 -408h-92zM348 477h676l-336 887h-4zM358 1759h68q24 -72 91.5 -114.5t168.5 -42.5t168.5 42.5t91.5 114.5h68q-28 -104 -113.5 -163.5t-214.5 -59.5t-214.5 59.5t-113.5 163.5z" />
<glyph unicode="&#x103;" horiz-adv-x="1032" d="M109 223q0 315 651 342v203q0 100 -62 161.5t-188 61.5q-160 0 -328 -92l-35 68q75 40 172 66t191 26q166 0 247 -79t81 -212v-582q0 -61 30.5 -93t85.5 -32v-61q-163 0 -188 143q-59 -73 -155.5 -120.5t-209.5 -47.5q-131 0 -211.5 67.5t-80.5 180.5zM188 225 q0 -84 61 -133t163 -49q113 0 206 49t142 121v293q-572 -23 -572 -281zM221 1468h64q12 -117 77.5 -186.5t167.5 -69.5q101 0 167.5 70t78.5 186h62q-12 -148 -96.5 -234.5t-211.5 -86.5q-129 0 -213 86.5t-96 234.5z" />
<glyph unicode="&#x104;" horiz-adv-x="1372" d="M76 0l559 1434h104l557 -1434q-188 -107 -188 -246q0 -51 34.5 -79.5t82.5 -28.5q62 0 116 28l5 -2v-65q-60 -29 -123 -29q-77 0 -131 43.5t-54 122.5q0 146 170 256h-4l-153 408h-729l-154 -408h-92zM348 477h676l-336 887h-4z" />
<glyph unicode="&#x105;" horiz-adv-x="1032" d="M109 223q0 315 651 342v203q0 100 -62 161.5t-188 61.5q-160 0 -328 -92l-35 68q75 40 172 66t191 26q166 0 247 -79t81 -212v-582q0 -61 30.5 -93t85.5 -32v-61q-188 -107 -188 -246q0 -51 34.5 -79.5t82.5 -28.5q62 0 116 28l5 -2v-65q-60 -29 -123 -29 q-77 0 -131 43.5t-54 122.5q0 149 185 264q-97 28 -115 135q-59 -73 -155.5 -120.5t-209.5 -47.5q-131 0 -211.5 67.5t-80.5 180.5zM188 225q0 -84 61 -133t163 -49q113 0 206 49t142 121v293q-572 -23 -572 -281z" />
<glyph unicode="&#x106;" horiz-adv-x="1460" d="M129 735q0 160 52 295t144.5 229t224.5 146.5t288 52.5q123 0 239 -35.5t205 -101.5l-45 -64q-82 62 -185.5 95.5t-213.5 33.5q-280 0 -453.5 -180t-173.5 -471q0 -204 77.5 -360.5t220 -242t329.5 -85.5q123 0 235.5 41t190.5 113l51 -56q-90 -83 -214 -126.5 t-265 -43.5q-319 0 -513 208.5t-194 551.5zM733 1546l223 244l68 -55l-225 -189h-66z" />
<glyph unicode="&#x107;" horiz-adv-x="1030" d="M125 532q0 241 130 384t339 143q186 0 307 -94l-45 -60q-117 86 -262 86q-173 0 -281 -125.5t-108 -333.5q0 -224 105.5 -355.5t283.5 -131.5q90 0 155.5 26t127.5 76l49 -53q-69 -59 -147 -89t-185 -30q-213 0 -341 150t-128 407zM508 1149l285 338l61 -49l-287 -289 h-59z" />
<glyph unicode="&#x108;" horiz-adv-x="1460" d="M129 735q0 160 52 295t144.5 229t224.5 146.5t288 52.5q123 0 239 -35.5t205 -101.5l-45 -64q-82 62 -185.5 95.5t-213.5 33.5q-280 0 -453.5 -180t-173.5 -471q0 -204 77.5 -360.5t220 -242t329.5 -85.5q123 0 235.5 41t190.5 113l51 -56q-90 -83 -214 -126.5 t-265 -43.5q-319 0 -513 208.5t-194 551.5zM471 1546l264 213h94l267 -213h-64l-248 154h-2l-247 -154h-64z" />
<glyph unicode="&#x109;" horiz-adv-x="1030" d="M125 532q0 241 130 384t339 143q186 0 307 -94l-45 -60q-117 86 -262 86q-173 0 -281 -125.5t-108 -333.5q0 -224 105.5 -355.5t283.5 -131.5q90 0 155.5 26t127.5 76l49 -53q-69 -59 -147 -89t-185 -30q-213 0 -341 150t-128 407zM254 1149l262 319h94l260 -319h-61 l-246 260h-2l-244 -260h-63z" />
<glyph unicode="&#x10a;" horiz-adv-x="1460" d="M129 735q0 160 52 295t144.5 229t224.5 146.5t288 52.5q123 0 239 -35.5t205 -101.5l-45 -64q-82 62 -185.5 95.5t-213.5 33.5q-280 0 -453.5 -180t-173.5 -471q0 -204 77.5 -360.5t220 -242t329.5 -85.5q123 0 235.5 41t190.5 113l51 -56q-90 -83 -214 -126.5 t-265 -43.5q-319 0 -513 208.5t-194 551.5zM733 1595v115h96v-115h-96z" />
<glyph unicode="&#x10b;" horiz-adv-x="1030" d="M125 532q0 241 130 384t339 143q186 0 307 -94l-45 -60q-117 86 -262 86q-173 0 -281 -125.5t-108 -333.5q0 -224 105.5 -355.5t283.5 -131.5q90 0 155.5 26t127.5 76l49 -53q-69 -59 -147 -89t-185 -30q-213 0 -341 150t-128 407zM514 1251v115h96v-115h-96z" />
<glyph unicode="&#x10c;" horiz-adv-x="1460" d="M129 735q0 160 52 295t144.5 229t224.5 146.5t288 52.5q123 0 239 -35.5t205 -101.5l-45 -64q-82 62 -185.5 95.5t-213.5 33.5q-280 0 -453.5 -180t-173.5 -471q0 -204 77.5 -360.5t220 -242t329.5 -85.5q123 0 235.5 41t190.5 113l51 -56q-90 -83 -214 -126.5 t-265 -43.5q-319 0 -513 208.5t-194 551.5zM471 1759h64l247 -155h2l248 155h64l-267 -213h-94z" />
<glyph unicode="&#x10d;" horiz-adv-x="1030" d="M125 532q0 241 130 384t339 143q186 0 307 -94l-45 -60q-117 86 -262 86q-173 0 -281 -125.5t-108 -333.5q0 -224 105.5 -355.5t283.5 -131.5q90 0 155.5 26t127.5 76l49 -53q-69 -59 -147 -89t-185 -30q-213 0 -341 150t-128 407zM254 1468h63l244 -258h2l246 258h61 l-260 -319h-94z" />
<glyph unicode="&#x10e;" horiz-adv-x="1443" d="M190 0v1434h377q362 0 555 -185t193 -514q0 -351 -188 -543t-560 -192h-377zM270 72h299q331 0 497.5 173t166.5 490q0 295 -171 461t-493 166h-299v-1290zM440 1759h64l248 -155h2l247 155h64l-266 -213h-94z" />
<glyph unicode="&#x10f;" horiz-adv-x="1173" d="M125 532q0 242 118 384.5t314 142.5q185 0 350 -172v659h78v-1546h-61l-15 156q-159 -181 -354 -181q-203 0 -316.5 150t-113.5 407zM205 532q0 -223 94.5 -356t263.5 -133q185 0 344 188v576q-166 184 -342 184q-166 0 -263 -124t-97 -335zM1139 1403v57q28 8 61 8 q70 0 105.5 -35.5t37.5 -95.5q0 -46 -32 -97.5t-84 -96.5h-62q50 50 79.5 100t29.5 86t-21 58t-65 22q-22 0 -49 -6z" />
<glyph unicode="&#x110;" horiz-adv-x="1513" d="M31 688v64h229v682h377q362 0 554.5 -185t192.5 -514q0 -352 -187.5 -543.5t-559.5 -191.5h-377v688h-229zM340 72h299q331 0 497.5 173t166.5 490q0 295 -171 461t-493 166h-299v-610h496v-64h-496v-616z" />
<glyph unicode="&#x111;" horiz-adv-x="1173" d="M125 532q0 242 118 384.5t314 142.5q185 0 350 -172v391h-217v63h217v205h78v-205h92v-63h-92v-1278h-61l-15 156q-159 -181 -354 -181q-203 0 -316.5 150t-113.5 407zM205 532q0 -223 94.5 -356t263.5 -133q185 0 344 188v576q-166 184 -342 184q-166 0 -263 -124 t-97 -335z" />
<glyph unicode="&#x112;" horiz-adv-x="1296" d="M190 0v1434h943v-72h-863v-596h779v-70h-779v-624h877v-72h-957zM387 1620v66h561v-66h-561z" />
<glyph unicode="&#x113;" horiz-adv-x="1136" d="M125 532q0 239 134 384t343 145q103 0 181 -34t126 -95t71.5 -141t23.5 -177q0 -25 -5 -65h-794v-17q0 -232 101 -360.5t300 -128.5q84 0 169.5 29.5t148.5 74.5l41 -59q-69 -50 -165.5 -81.5t-195.5 -31.5q-234 0 -356.5 146.5t-122.5 410.5zM209 610h717 q2 81 -15 148.5t-54 121t-101.5 83.5t-151.5 30q-159 0 -266 -103t-129 -280zM317 1274v67h560v-67h-560z" />
<glyph unicode="&#x114;" horiz-adv-x="1296" d="M190 0v1434h943v-72h-863v-596h779v-70h-779v-624h877v-72h-957zM340 1759h68q24 -72 91.5 -114.5t168.5 -42.5t168.5 42.5t91.5 114.5h67q-28 -104 -113 -163.5t-214 -59.5t-214.5 59.5t-113.5 163.5z" />
<glyph unicode="&#x115;" horiz-adv-x="1136" d="M125 532q0 239 134 384t343 145q103 0 181 -34t126 -95t71.5 -141t23.5 -177q0 -25 -5 -65h-794v-17q0 -232 101 -360.5t300 -128.5q84 0 169.5 29.5t148.5 74.5l41 -59q-69 -50 -165.5 -81.5t-195.5 -31.5q-234 0 -356.5 146.5t-122.5 410.5zM209 610h717 q2 81 -15 148.5t-54 121t-101.5 83.5t-151.5 30q-159 0 -266 -103t-129 -280zM289 1468h63q12 -117 78 -186.5t168 -69.5q101 0 167.5 70t78.5 186h61q-12 -148 -96 -234.5t-211 -86.5q-129 0 -213 86.5t-96 234.5z" />
<glyph unicode="&#x116;" horiz-adv-x="1296" d="M190 0v1434h943v-72h-863v-596h779v-70h-779v-624h877v-72h-957zM618 1595v115h97v-115h-97z" />
<glyph unicode="&#x117;" horiz-adv-x="1136" d="M125 532q0 239 134 384t343 145q103 0 181 -34t126 -95t71.5 -141t23.5 -177q0 -25 -5 -65h-794v-17q0 -232 101 -360.5t300 -128.5q84 0 169.5 29.5t148.5 74.5l41 -59q-69 -50 -165.5 -81.5t-195.5 -31.5q-234 0 -356.5 146.5t-122.5 410.5zM209 610h717 q2 81 -15 148.5t-54 121t-101.5 83.5t-151.5 30q-159 0 -266 -103t-129 -280zM549 1251v115h96v-115h-96z" />
<glyph unicode="&#x118;" horiz-adv-x="1296" d="M190 0v1434h943v-72h-863v-596h779v-70h-779v-624h877v-72h-2q-189 -107 -189 -246q0 -51 34.5 -79.5t82.5 -28.5q63 0 117 28l4 -2v-65q-60 -29 -123 -29q-77 0 -130.5 43.5t-53.5 122.5q0 146 170 256h-867z" />
<glyph unicode="&#x119;" horiz-adv-x="1136" d="M125 532q0 239 134 384t343 145q103 0 181 -34t126 -95t71.5 -141t23.5 -177q0 -25 -5 -65h-792v-25q0 -228 101 -354.5t298 -126.5q84 0 169.5 29.5t148.5 74.5l41 -59q-44 -30 -64 -39q-57 -32 -93 -55.5t-79.5 -60.5t-65.5 -81t-22 -94q0 -54 33.5 -83t89.5 -29 q63 0 117 28l4 -2v-65q-60 -29 -123 -29q-85 0 -138 44t-53 126q0 124 146 242q-55 -15 -113 -15q-234 0 -356.5 146.5t-122.5 410.5zM211 610h715q2 81 -15 148.5t-54 121t-101.5 83.5t-151.5 30q-158 0 -265.5 -103.5t-127.5 -279.5z" />
<glyph unicode="&#x11a;" horiz-adv-x="1296" d="M190 0v1434h943v-72h-863v-596h779v-70h-779v-624h877v-72h-957zM356 1759h64l248 -155h2l248 155h63l-266 -213h-94z" />
<glyph unicode="&#x11b;" horiz-adv-x="1136" d="M125 532q0 239 134 384t343 145q103 0 181 -34t126 -95t71.5 -141t23.5 -177q0 -25 -5 -65h-794v-17q0 -232 101 -360.5t300 -128.5q84 0 169.5 29.5t148.5 74.5l41 -59q-69 -50 -165.5 -81.5t-195.5 -31.5q-234 0 -356.5 146.5t-122.5 410.5zM209 610h717 q2 81 -15 148.5t-54 121t-101.5 83.5t-151.5 30q-159 0 -266 -103t-129 -280zM289 1468h63l244 -258h2l246 258h61l-260 -319h-94z" />
<glyph unicode="&#x11c;" horiz-adv-x="1480" d="M129 735q0 214 89 378.5t250 254.5t370 90q257 0 446 -115l-41 -63q-168 106 -405 106q-280 0 -453.5 -180t-173.5 -471q0 -316 168 -502t459 -186q117 0 221.5 28t175.5 75v499h-453v68h529v-608q-93 -63 -216.5 -98.5t-256.5 -35.5q-326 0 -517.5 206t-191.5 554z M469 1546l264 213h94l267 -213h-64l-248 154h-2l-248 -154h-63z" />
<glyph unicode="&#x11d;" horiz-adv-x="1140" d="M86 -160q0 158 205 234q-98 51 -98 149q0 43 25.5 82.5t66.5 65.5q-81 51 -127.5 132.5t-46.5 180.5q0 161 119 268t294 107q148 0 264 -82q125 89 291 84v-68q-164 5 -252 -47q113 -110 113 -262q0 -164 -121 -272.5t-295 -108.5q-107 0 -194 41q-70 -43 -70 -108 q0 -23 6.5 -42t22 -33t30.5 -24.5t44 -17.5t49 -11.5t58.5 -8t61 -5.5t66.5 -4q459 -23 459 -252q0 -130 -128 -199t-370 -69q-225 0 -349 71t-124 199zM164 -158q0 -99 103.5 -154t291.5 -55q201 0 311.5 52t110.5 149q0 171 -401 189q-117 3 -215 26q-90 -26 -145.5 -79.5 t-55.5 -127.5zM188 684q0 -134 97 -224.5t239 -90.5q143 0 241.5 90.5t98.5 224.5q0 132 -98.5 221.5t-241.5 89.5q-141 0 -238.5 -89.5t-97.5 -221.5zM276 1149l263 319h94l260 -319h-62l-245 260h-2l-244 -260h-64z" />
<glyph unicode="&#x11e;" horiz-adv-x="1480" d="M129 735q0 214 89 378.5t250 254.5t370 90q257 0 446 -115l-41 -63q-168 106 -405 106q-280 0 -453.5 -180t-173.5 -471q0 -316 168 -502t459 -186q117 0 221.5 28t175.5 75v499h-453v68h529v-608q-93 -63 -216.5 -98.5t-256.5 -35.5q-326 0 -517.5 206t-191.5 554z M455 1759h67q24 -72 91.5 -114.5t168.5 -42.5t168.5 42.5t91.5 114.5h68q-28 -104 -113.5 -163.5t-214.5 -59.5t-214 59.5t-113 163.5z" />
<glyph unicode="&#x11f;" horiz-adv-x="1140" d="M86 -160q0 158 205 234q-98 51 -98 149q0 43 25.5 82.5t66.5 65.5q-81 51 -127.5 132.5t-46.5 180.5q0 161 119 268t294 107q148 0 264 -82q125 89 291 84v-68q-164 5 -252 -47q113 -110 113 -262q0 -164 -121 -272.5t-295 -108.5q-107 0 -194 41q-70 -43 -70 -108 q0 -23 6.5 -42t22 -33t30.5 -24.5t44 -17.5t49 -11.5t58.5 -8t61 -5.5t66.5 -4q459 -23 459 -252q0 -130 -128 -199t-370 -69q-225 0 -349 71t-124 199zM164 -158q0 -99 103.5 -154t291.5 -55q201 0 311.5 52t110.5 149q0 171 -401 189q-117 3 -215 26q-90 -26 -145.5 -79.5 t-55.5 -127.5zM188 684q0 -134 97 -224.5t239 -90.5q143 0 241.5 90.5t98.5 224.5q0 132 -98.5 221.5t-241.5 89.5q-141 0 -238.5 -89.5t-97.5 -221.5zM276 1468h64q12 -117 78 -186.5t168 -69.5q101 0 167 70t78 186h62q-12 -148 -96 -234.5t-211 -86.5q-129 0 -213.5 86.5 t-96.5 234.5z" />
<glyph unicode="&#x120;" horiz-adv-x="1480" d="M129 735q0 214 89 378.5t250 254.5t370 90q257 0 446 -115l-41 -63q-168 106 -405 106q-280 0 -453.5 -180t-173.5 -471q0 -316 168 -502t459 -186q117 0 221.5 28t175.5 75v499h-453v68h529v-608q-93 -63 -216.5 -98.5t-256.5 -35.5q-326 0 -517.5 206t-191.5 554z M731 1595v115h96v-115h-96z" />
<glyph unicode="&#x121;" horiz-adv-x="1140" d="M86 -160q0 158 205 234q-98 51 -98 149q0 43 25.5 82.5t66.5 65.5q-81 51 -127.5 132.5t-46.5 180.5q0 161 119 268t294 107q148 0 264 -82q125 89 291 84v-68q-164 5 -252 -47q113 -110 113 -262q0 -164 -121 -272.5t-295 -108.5q-107 0 -194 41q-70 -43 -70 -108 q0 -23 6.5 -42t22 -33t30.5 -24.5t44 -17.5t49 -11.5t58.5 -8t61 -5.5t66.5 -4q459 -23 459 -252q0 -130 -128 -199t-370 -69q-225 0 -349 71t-124 199zM164 -158q0 -99 103.5 -154t291.5 -55q201 0 311.5 52t110.5 149q0 171 -401 189q-117 3 -215 26q-90 -26 -145.5 -79.5 t-55.5 -127.5zM188 684q0 -134 97 -224.5t239 -90.5q143 0 241.5 90.5t98.5 224.5q0 132 -98.5 221.5t-241.5 89.5q-141 0 -238.5 -89.5t-97.5 -221.5zM535 1251v115h96v-115h-96z" />
<glyph unicode="&#x122;" horiz-adv-x="1480" d="M129 735q0 214 89 378.5t250 254.5t370 90q257 0 446 -115l-41 -63q-168 106 -405 106q-280 0 -453.5 -180t-173.5 -471q0 -316 168 -502t459 -186q117 0 221.5 28t175.5 75v499h-453v68h529v-608q-93 -63 -216.5 -98.5t-256.5 -35.5q-326 0 -517.5 206t-191.5 554z M678 -115q32 9 59 9q72 0 108 -36t38 -96q0 -45 -32.5 -97t-84.5 -97h-61q108 108 108 188q0 35 -21.5 56.5t-64.5 21.5q-22 0 -49 -6v57z" />
<glyph unicode="&#x123;" horiz-adv-x="1140" d="M86 -160q0 158 205 234q-98 51 -98 149q0 43 25.5 82.5t66.5 65.5q-81 51 -127.5 132.5t-46.5 180.5q0 161 119 268t294 107q148 0 264 -82q125 89 291 84v-68q-164 5 -252 -47q113 -110 113 -262q0 -164 -121 -272.5t-295 -108.5q-107 0 -194 41q-70 -43 -70 -108 q0 -23 6.5 -42t22 -33t30.5 -24.5t44 -17.5t49 -11.5t58.5 -8t61 -5.5t66.5 -4q459 -23 459 -252q0 -130 -128 -199t-370 -69q-225 0 -349 71t-124 199zM164 -158q0 -99 103.5 -154t291.5 -55q201 0 311.5 52t110.5 149q0 171 -401 189q-117 3 -215 26q-90 -26 -145.5 -79.5 t-55.5 -127.5zM188 684q0 -134 97 -224.5t239 -90.5q143 0 241.5 90.5t98.5 224.5q0 132 -98.5 221.5t-241.5 89.5q-141 0 -238.5 -89.5t-97.5 -221.5zM451 1276q0 46 32 97.5t84 96.5h62q-50 -50 -79.5 -100t-29.5 -86t21 -58t65 -22q22 0 49 6v-57q-28 -8 -61 -8 q-70 0 -105.5 35.5t-37.5 95.5z" />
<glyph unicode="&#x124;" horiz-adv-x="1421" d="M190 0v1434h80v-668h881v668h80v-1434h-80v694h-881v-694h-80zM399 1546l265 213h94l266 -213h-63l-248 154h-2l-248 -154h-64z" />
<glyph unicode="&#x125;" horiz-adv-x="1157" d="M-84 1632l264 213h94l267 -213h-64l-248 154h-2l-247 -154h-64zM188 0v1546h80v-674q78 87 178.5 138t215.5 51q319 0 319 -340v-721h-80v721q0 272 -250 272q-214 0 -383 -200v-793h-80z" />
<glyph unicode="&#x126;" horiz-adv-x="1421" d="M190 0v1434h80v-297h881v297h80v-1434h-80v694h-881v-694h-80zM270 766h881v309h-881v-309z" />
<glyph unicode="&#x127;" horiz-adv-x="1159" d="M41 1278v63h149v205h80v-205h285v-63h-285v-406q78 87 178.5 138t215.5 51q319 0 319 -340v-721h-80v721q0 272 -250 272q-214 0 -383 -200v-793h-80v1278h-149z" />
<glyph unicode="&#x128;" horiz-adv-x="460" d="M-39 1569q-10 89 29 140.5t106 51.5q40 0 79.5 -23.5t66 -52t60 -52t63.5 -23.5q40 0 62 34.5t15 92.5h60q10 -89 -29.5 -141t-107.5 -52q-39 0 -78 24t-65.5 52t-60 52t-63.5 24q-40 0 -63 -34.5t-17 -92.5h-57zM190 0v1434h80v-1434h-80z" />
<glyph unicode="&#x129;" horiz-adv-x="456" d="M-41 1225q-9 90 30 141t107 51q32 0 63 -15.5t55.5 -37.5t48 -44.5t49 -38t50.5 -15.5q40 0 62.5 34t15.5 93h60q9 -90 -30.5 -141.5t-107.5 -51.5q-39 0 -78 23.5t-65 51.5t-59.5 51.5t-63.5 23.5q-40 0 -62.5 -33.5t-15.5 -91.5h-59zM188 0v1034h80v-1034h-80z" />
<glyph unicode="&#x12a;" horiz-adv-x="460" d="M-49 1620v66h561v-66h-561zM190 0v1434h80v-1434h-80z" />
<glyph unicode="&#x12b;" horiz-adv-x="456" d="M-51 1274v67h559v-67h-559zM188 0v1034h80v-1034h-80z" />
<glyph unicode="&#x12c;" horiz-adv-x="460" d="M-96 1759h67q24 -72 91.5 -114.5t168.5 -42.5t169 42.5t92 114.5h67q-28 -104 -113.5 -163.5t-214.5 -59.5t-214 59.5t-113 163.5zM190 0v1434h80v-1434h-80z" />
<glyph unicode="&#x12d;" horiz-adv-x="456" d="M-80 1468h64q12 -117 77.5 -186.5t167.5 -69.5q101 0 167.5 70t78.5 186h62q-12 -148 -96.5 -234.5t-211.5 -86.5q-129 0 -213 86.5t-96 234.5zM188 0v1034h80v-1034h-80z" />
<glyph unicode="&#x12e;" horiz-adv-x="460" d="M12 -256q0 149 178 260v1430h80v-1434q-188 -107 -188 -246q0 -51 34.5 -79.5t82.5 -28.5q62 0 116 28l4 -2v-65q-60 -29 -122 -29q-77 0 -131 43.5t-54 122.5z" />
<glyph unicode="&#x12f;" horiz-adv-x="456" d="M10 -256q0 149 178 260v1030h80v-1034q-188 -107 -188 -246q0 -51 34.5 -79.5t82.5 -28.5q62 0 116 28l4 -2v-65q-60 -29 -122 -29q-77 0 -131 43.5t-54 122.5zM188 1362v147h80v-147h-80z" />
<glyph unicode="&#x130;" horiz-adv-x="460" d="M180 1595v115h96v-115h-96zM190 0v1434h80v-1434h-80z" />
<glyph unicode="&#x131;" horiz-adv-x="456" d="M188 0v1034h80v-1034h-80z" />
<glyph unicode="&#x134;" horiz-adv-x="1155" d="M117 279l71 28q17 -50 43.5 -93t67 -82.5t100.5 -62t133 -22.5q179 0 269 113t90 305v969h80v-971q0 -226 -110 -357t-326 -131q-87 0 -160 26.5t-123 72t-82.5 96.5t-52.5 109zM618 1546l265 213h94l266 -213h-63l-248 154h-2l-248 -154h-64z" />
<glyph unicode="&#x135;" horiz-adv-x="473" d="M-78 -420l15 68q24 -8 63 -8q94 0 149.5 68t55.5 214v1112h80v-1110q0 -184 -76 -269t-207 -85q-42 0 -80 10zM-63 1149l262 319h94l260 -319h-61l-246 260h-2l-244 -260h-63z" />
<glyph unicode="&#x136;" horiz-adv-x="1347" d="M190 0v1434h80v-906l807 906h103l-473 -529l532 -905h-98l-486 846l-385 -430v-416h-80zM549 -115q31 9 59 9q72 0 108 -36t38 -96q0 -45 -32.5 -97t-84.5 -97h-62q109 109 109 188q0 35 -21.5 56.5t-64.5 21.5q-22 0 -49 -6v57z" />
<glyph unicode="&#x137;" horiz-adv-x="1030" d="M188 0v1546h80v-1108l545 596h96l-309 -334l373 -700h-90l-334 645l-281 -303v-342h-80zM475 -115q36 9 62 9q71 0 107 -36t36 -96q1 -45 -31 -97t-84 -97h-63q110 107 110 188q0 35 -21.5 56.5t-64.5 21.5q-21 0 -51 -6v57z" />
<glyph unicode="&#x138;" horiz-adv-x="1030" d="M188 0v1034h80v-596l545 596h96l-309 -334l373 -700h-90l-334 645l-281 -303v-342h-80z" />
<glyph unicode="&#x139;" horiz-adv-x="1234" d="M180 1546l223 244l68 -55l-225 -189h-66zM190 0v1434h80v-1362h863v-72h-943z" />
<glyph unicode="&#x13a;" horiz-adv-x="456" d="M178 1632l223 244l68 -55l-225 -189h-66zM188 0v1546h80v-1546h-80z" />
<glyph unicode="&#x13b;" horiz-adv-x="1234" d="M190 0v1434h80v-1362h863v-72h-943zM557 -115q32 9 59 9q72 0 108 -36t38 -96q0 -45 -32.5 -97t-84.5 -97h-61q108 108 108 188q0 35 -21.5 56.5t-64.5 21.5q-22 0 -49 -6v57z" />
<glyph unicode="&#x13c;" horiz-adv-x="456" d="M188 0v1546h80v-1546h-80zM188 -115q36 9 62 9q71 0 107 -36t36 -96q1 -45 -30.5 -97t-83.5 -97h-64q111 108 111 188q0 35 -21.5 56.5t-64.5 21.5q-22 0 -52 -6v57z" />
<glyph unicode="&#x13d;" horiz-adv-x="1234" d="M190 0v1434h80v-1362h863v-72h-943zM453 1374v58q28 8 59 8q72 0 107.5 -35.5t37.5 -95.5q0 -46 -32 -98t-84 -97h-62q50 50 79.5 100.5t29.5 88.5q0 35 -21 56t-65 21q-22 0 -49 -6z" />
<glyph unicode="&#x13e;" horiz-adv-x="456" d="M188 0v1546h80v-1546h-80zM422 1403v57q28 8 61 8q71 0 106.5 -35.5t37.5 -95.5q0 -45 -32.5 -97t-84.5 -97h-61q50 50 79 99.5t29 86.5q0 36 -21 58t-65 22q-22 0 -49 -6z" />
<glyph unicode="&#x13f;" horiz-adv-x="1234" d="M190 0v1434h80v-1362h863v-72h-943zM1038 664v114h97v-114h-97z" />
<glyph unicode="&#x140;" horiz-adv-x="456" d="M188 0v1546h80v-1546h-80zM412 657v115h96v-115h-96z" />
<glyph unicode="&#x141;" horiz-adv-x="1296" d="M29 467v74l223 141v752h80v-701l413 262v-75l-413 -263v-585h862v-72h-942v608z" />
<glyph unicode="&#x142;" horiz-adv-x="493" d="M18 596v74l189 116v760h80v-712l188 120v-75l-188 -117v-762h-80v713z" />
<glyph unicode="&#x143;" horiz-adv-x="1462" d="M190 0v1434h99l903 -1332v1332h80v-1434h-101l-903 1329v-1329h-78zM682 1546l223 244l68 -55l-225 -189h-66z" />
<glyph unicode="&#x144;" d="M180 0v1034h72l8 -160q176 187 393 187q320 0 320 -340v-721h-80v721q0 272 -250 272q-218 0 -383 -202v-791h-80zM524 1149l285 338l61 -49l-286 -289h-60z" />
<glyph unicode="&#x145;" horiz-adv-x="1462" d="M190 0v1434h99l903 -1332v1332h80v-1434h-101l-903 1329v-1329h-78zM627 -115q32 9 59 9q72 0 107.5 -36t37.5 -96q0 -46 -32 -97.5t-84 -96.5h-62q109 109 109 188q0 35 -21.5 56.5t-64.5 21.5q-22 0 -49 -6v57z" />
<glyph unicode="&#x146;" d="M180 0v1034h72l8 -160q176 187 393 187q320 0 320 -340v-721h-80v721q0 272 -250 272q-218 0 -383 -202v-791h-80zM473 -115q36 9 62 9q71 0 107 -36t36 -96q1 -45 -31 -97t-84 -97h-63q110 107 110 188q0 35 -21.5 56.5t-64.5 21.5q-21 0 -51 -6v57z" />
<glyph unicode="&#x147;" horiz-adv-x="1462" d="M190 0v1434h99l903 -1332v1332h80v-1434h-101l-903 1329v-1329h-78zM420 1759h63l248 -155h2l248 155h63l-266 -213h-94z" />
<glyph unicode="&#x148;" d="M180 0v1034h72l8 -160q176 187 393 187q320 0 320 -340v-721h-80v721q0 272 -250 272q-218 0 -383 -202v-791h-80zM268 1468h64l243 -258h3l245 258h62l-260 -319h-95z" />
<glyph unicode="&#x14a;" horiz-adv-x="1462" d="M190 0v1434h101l901 -1299v1299h80v-1510q0 -184 -75.5 -269t-205.5 -85q-52 0 -82 10l15 68q32 -8 63 -8q95 0 150 68t55 214v78l-924 1329v-1329h-78z" />
<glyph unicode="&#x14b;" d="M180 0v1034h72l8 -160q176 187 393 187q320 0 320 -340v-797q0 -184 -75.5 -269t-205.5 -85q-40 0 -82 10l15 68q27 -8 63 -8q94 0 149.5 68t55.5 214v801q0 270 -250 270q-218 0 -383 -202v-791h-80z" />
<glyph unicode="&#x14c;" horiz-adv-x="1652" d="M129 729q0 162 55 300t149.5 231t221.5 145.5t270 52.5q144 0 271.5 -52.5t222.5 -146t150 -231t55 -299.5q0 -172 -54 -315t-148 -238.5t-222 -148t-275 -52.5q-146 0 -273.5 52.5t-221 148t-147.5 238.5t-54 315zM211 729q0 -156 47.5 -285.5t130.5 -216t195 -133.5 t241 -47q130 0 242.5 47t195.5 133.5t131 216t48 285.5q0 145 -49 269.5t-132.5 208.5t-196.5 131.5t-239 47.5q-125 0 -237.5 -47.5t-195.5 -131.5t-132 -208.5t-49 -269.5zM545 1620v66h561v-66h-561z" />
<glyph unicode="&#x14d;" horiz-adv-x="1210" d="M125 532q0 238 135.5 382.5t345.5 144.5q209 0 343 -144.5t134 -382.5q0 -255 -131 -406t-346 -151q-217 0 -349 151t-132 406zM205 532q0 -222 109.5 -355.5t291.5 -133.5q179 0 288.5 133.5t109.5 355.5q0 205 -112 332t-286 127q-175 0 -288 -127t-113 -332zM324 1274 v67h559v-67h-559z" />
<glyph unicode="&#x14e;" horiz-adv-x="1652" d="M129 729q0 162 55 300t149.5 231t221.5 145.5t270 52.5q144 0 271.5 -52.5t222.5 -146t150 -231t55 -299.5q0 -172 -54 -315t-148 -238.5t-222 -148t-275 -52.5q-146 0 -273.5 52.5t-221 148t-147.5 238.5t-54 315zM211 729q0 -156 47.5 -285.5t130.5 -216t195 -133.5 t241 -47q130 0 242.5 47t195.5 133.5t131 216t48 285.5q0 145 -49 269.5t-132.5 208.5t-196.5 131.5t-239 47.5q-125 0 -237.5 -47.5t-195.5 -131.5t-132 -208.5t-49 -269.5zM498 1759h67q24 -72 91.5 -114.5t168.5 -42.5t168.5 42.5t91.5 114.5h68q-28 -104 -113.5 -163.5 t-214.5 -59.5t-214 59.5t-113 163.5z" />
<glyph unicode="&#x14f;" horiz-adv-x="1210" d="M125 532q0 238 135.5 382.5t345.5 144.5q209 0 343 -144.5t134 -382.5q0 -255 -131 -406t-346 -151q-217 0 -349 151t-132 406zM205 532q0 -222 109.5 -355.5t291.5 -133.5q179 0 288.5 133.5t109.5 355.5q0 205 -112 332t-286 127q-175 0 -288 -127t-113 -332zM295 1468 h63q12 -117 78 -186.5t168 -69.5q101 0 167.5 70t78.5 186h61q-12 -148 -96 -234.5t-211 -86.5q-129 0 -213 86.5t-96 234.5z" />
<glyph unicode="&#x150;" horiz-adv-x="1652" d="M129 729q0 162 55 300t149.5 231t221.5 145.5t270 52.5q144 0 271.5 -52.5t222.5 -146t150 -231t55 -299.5q0 -172 -54 -315t-148 -238.5t-222 -148t-275 -52.5q-146 0 -273.5 52.5t-221 148t-147.5 238.5t-54 315zM211 729q0 -156 47.5 -285.5t130.5 -216t195 -133.5 t241 -47q130 0 242.5 47t195.5 133.5t131 216t48 285.5q0 145 -49 269.5t-132.5 208.5t-196.5 131.5t-239 47.5q-125 0 -237.5 -47.5t-195.5 -131.5t-132 -208.5t-49 -269.5zM643 1546l219 244l66 -55l-219 -189h-66zM909 1546l219 244l66 -55l-219 -189h-66z" />
<glyph unicode="&#x151;" horiz-adv-x="1210" d="M125 532q0 238 135.5 382.5t345.5 144.5q209 0 343 -144.5t134 -382.5q0 -255 -131 -406t-346 -151q-217 0 -349 151t-132 406zM205 532q0 -222 109.5 -355.5t291.5 -133.5q179 0 288.5 133.5t109.5 355.5q0 205 -112 332t-286 127q-175 0 -288 -127t-113 -332zM424 1149 l281 338l63 -49l-285 -289h-59zM692 1149l281 338l63 -49l-286 -289h-58z" />
<glyph unicode="&#x152;" horiz-adv-x="2545" d="M129 731q0 208 93.5 375.5t252 259.5t348.5 92q209 0 376 -118.5t239 -317.5v412h942v-72h-862v-596h778v-70h-778v-624h876v-72h-956v416q-70 -205 -235 -323t-380 -118q-146 0 -273.5 54.5t-220.5 151.5t-146.5 239.5t-53.5 310.5zM211 731q0 -152 47.5 -281 t129.5 -217t195 -137t242 -49q128 0 240.5 49.5t195 137.5t130 217t47.5 280q0 141 -49 264t-132 208.5t-195.5 134t-236.5 48.5q-126 0 -238.5 -48.5t-195.5 -134t-131.5 -208.5t-48.5 -264z" />
<glyph unicode="&#x153;" horiz-adv-x="2013" d="M125 532q0 238 135.5 383.5t345.5 145.5q163 0 279.5 -94.5t156.5 -257.5q41 164 158 258t281 94q201 0 301 -122.5t100 -324.5q0 -17 -6 -65h-793q-2 -246 99.5 -376t300.5 -130q85 0 169 29.5t148 74.5l41 -59q-68 -49 -164 -81t-194 -32q-184 0 -294.5 92.5 t-148.5 266.5q-40 -168 -154.5 -263.5t-279.5 -95.5q-216 0 -348.5 151.5t-132.5 405.5zM207 532q0 -223 108.5 -356t290.5 -133q179 0 288.5 133.5t109.5 355.5q0 207 -112 333t-286 126q-175 0 -287 -126t-112 -333zM1087 610h717q2 81 -15.5 148.5t-55 121t-102 83.5 t-150.5 30q-158 0 -265 -103t-129 -280z" />
<glyph unicode="&#x154;" horiz-adv-x="1366" d="M190 0v1434h572q122 0 214 -35t143.5 -95t76.5 -130.5t25 -149.5q0 -142 -84.5 -255.5t-253.5 -145.5l329 -623h-92l-317 612h-533v-612h-80zM270 680h488q101 0 177.5 30.5t120 82t64.5 110t21 121.5q0 52 -12 99.5t-40.5 92t-71 77t-108.5 52t-147 19.5h-492v-684z M614 1546l224 244l67 -55l-225 -189h-66z" />
<glyph unicode="&#x155;" horiz-adv-x="763" d="M180 0v1034h70l10 -182q123 209 332 209q69 0 123 -14l-17 -78q-62 16 -112 16q-197 0 -326 -219v-766h-80zM393 1149l285 338l61 -49l-286 -289h-60z" />
<glyph unicode="&#x156;" horiz-adv-x="1366" d="M190 0v1434h572q122 0 214 -35t143.5 -95t76.5 -130.5t25 -149.5q0 -142 -84.5 -255.5t-253.5 -145.5l329 -623h-92l-317 612h-41h-492v-612h-80zM270 680h488q101 0 177.5 30.5t120 82t64.5 110t21 121.5q0 52 -12 99.5t-40.5 92t-71 77t-108.5 52t-147 19.5h-492v-684z M561 -115q31 9 60 9q72 0 107.5 -36t37.5 -96q0 -45 -32.5 -97t-84.5 -97h-61q108 108 108 188q0 35 -21.5 56.5t-64.5 21.5q-22 0 -49 -6v57z" />
<glyph unicode="&#x157;" horiz-adv-x="763" d="M180 0v1034h70l10 -182q123 209 332 209q69 0 123 -14l-17 -78q-62 16 -112 16q-197 0 -326 -219v-766h-80zM180 -115q36 9 62 9q71 0 107 -36t36 -96q1 -45 -31 -97t-84 -97h-63q110 107 110 188q0 35 -21.5 56.5t-64.5 21.5q-21 0 -51 -6v57z" />
<glyph unicode="&#x158;" horiz-adv-x="1366" d="M190 0v1434h572q122 0 214 -35t143.5 -95t76.5 -130.5t25 -149.5q0 -142 -84.5 -255.5t-253.5 -145.5l329 -623h-92l-317 612h-41h-492v-612h-80zM270 680h488q101 0 177.5 30.5t120 82t64.5 110t21 121.5q0 52 -12 99.5t-40.5 92t-71 77t-108.5 52t-147 19.5h-492v-684z M352 1759h64l248 -155h2l247 155h64l-266 -213h-95z" />
<glyph unicode="&#x159;" horiz-adv-x="763" d="M139 1468h64l243 -258h3l245 258h62l-260 -319h-95zM180 0v1034h70l10 -182q123 209 332 209q69 0 123 -14l-17 -78q-62 16 -112 16q-197 0 -326 -219v-766h-80z" />
<glyph unicode="&#x15a;" horiz-adv-x="1232" d="M121 115l43 65q79 -56 201 -94.5t256 -38.5q201 0 304 85t103 222q0 66 -26.5 118t-55.5 81.5t-99 58.5t-106.5 39t-127.5 32q-92 23 -139.5 36.5t-121.5 46t-111 70.5t-66.5 102.5t-29.5 148.5q0 161 125.5 266t339.5 105q251 0 443 -100l-35 -68q-188 96 -406 96 q-178 0 -281.5 -83.5t-103.5 -215.5q0 -77 30 -133t81.5 -88.5t117.5 -56t139 -40t146.5 -34.5t139.5 -46.5t117.5 -68.5t81.5 -107.5t30 -158.5q0 -170 -124 -274.5t-365 -104.5q-147 0 -281 40.5t-219 99.5zM565 1546l223 244l68 -55l-225 -189h-66z" />
<glyph unicode="&#x15b;" horiz-adv-x="907" d="M90 70l39 61q57 -36 144.5 -62t179.5 -26q138 0 211 57t73 152q0 67 -35 112t-91 68t-123.5 40t-135.5 37t-124 48.5t-91 85t-35 137.5q0 123 94 201t250 78q184 0 324 -72l-33 -65q-58 30 -136.5 49.5t-154.5 19.5q-122 0 -194 -58.5t-72 -150.5q0 -59 27.5 -101t72 -64 t101.5 -40.5t116.5 -30t116.5 -33.5t101.5 -51t72 -82t27.5 -126q0 -129 -92.5 -204t-267.5 -75q-107 0 -204 27.5t-161 67.5zM399 1149l285 338l61 -49l-286 -289h-60z" />
<glyph unicode="&#x15c;" horiz-adv-x="1232" d="M121 115l43 65q79 -56 201 -94.5t256 -38.5q201 0 304 85t103 222q0 66 -26.5 118t-55.5 81.5t-99 58.5t-106.5 39t-127.5 32q-92 23 -139.5 36.5t-121.5 46t-111 70.5t-66.5 102.5t-29.5 148.5q0 161 125.5 266t339.5 105q251 0 443 -100l-35 -68q-188 96 -406 96 q-178 0 -281.5 -83.5t-103.5 -215.5q0 -77 30 -133t81.5 -88.5t117.5 -56t139 -40t146.5 -34.5t139.5 -46.5t117.5 -68.5t81.5 -107.5t30 -158.5q0 -170 -124 -274.5t-365 -104.5q-147 0 -281 40.5t-219 99.5zM303 1546l264 213h95l266 -213h-64l-248 154h-2l-247 -154h-64z " />
<glyph unicode="&#x15d;" horiz-adv-x="907" d="M90 70l39 61q57 -36 144.5 -62t179.5 -26q138 0 211 57t73 152q0 67 -35 112t-91 68t-123.5 40t-135.5 37t-124 48.5t-91 85t-35 137.5q0 123 94 201t250 78q184 0 324 -72l-33 -65q-58 30 -136.5 49.5t-154.5 19.5q-122 0 -194 -58.5t-72 -150.5q0 -59 27.5 -101t72 -64 t101.5 -40.5t116.5 -30t116.5 -33.5t101.5 -51t72 -82t27.5 -126q0 -129 -92.5 -204t-267.5 -75q-107 0 -204 27.5t-161 67.5zM147 1149l263 319h94l260 -319h-62l-245 260h-2l-244 -260h-64z" />
<glyph unicode="&#x15e;" horiz-adv-x="1232" d="M121 115l43 65q79 -56 201 -94.5t256 -38.5q201 0 304 85t103 222q0 66 -26.5 118t-55.5 81.5t-99 58.5t-106.5 39t-127.5 32q-92 23 -139.5 36.5t-121.5 46t-111 70.5t-66.5 102.5t-29.5 148.5q0 161 125.5 266t339.5 105q251 0 443 -100l-35 -68q-188 96 -406 96 q-178 0 -281.5 -83.5t-103.5 -215.5q0 -77 30 -133t81.5 -88.5t117.5 -56t139 -40t146.5 -34.5t139.5 -46.5t117.5 -68.5t81.5 -107.5t30 -158.5q0 -166 -120.5 -270.5t-350.5 -108.5q-40 -229 -236 -409l-71 35q201 166 248 376q-138 6 -260 44.5t-199 93.5z" />
<glyph unicode="&#x15f;" horiz-adv-x="907" d="M90 70l39 61q57 -36 144.5 -62t179.5 -26q138 0 211 57t73 152q0 67 -35 112t-91 68t-123.5 40t-135.5 37t-124 48.5t-91 85t-35 137.5q0 123 94 201t250 78q184 0 324 -72l-33 -65q-58 30 -136.5 49.5t-154.5 19.5q-122 0 -194 -58.5t-72 -150.5q0 -59 27.5 -101t72 -64 t101.5 -40.5t116.5 -30t116.5 -33.5t101.5 -51t72 -82t27.5 -126q0 -125 -88 -200t-252 -79q-40 -230 -235 -409l-72 35q201 166 248 376q-96 4 -181.5 30t-144.5 63z" />
<glyph unicode="&#x160;" horiz-adv-x="1232" d="M121 115l43 65q79 -56 201 -94.5t256 -38.5q201 0 304 85t103 222q0 66 -26.5 118t-55.5 81.5t-99 58.5t-106.5 39t-127.5 32q-92 23 -139.5 36.5t-121.5 46t-111 70.5t-66.5 102.5t-29.5 148.5q0 161 125.5 266t339.5 105q251 0 443 -100l-35 -68q-188 96 -406 96 q-178 0 -281.5 -83.5t-103.5 -215.5q0 -77 30 -133t81.5 -88.5t117.5 -56t139 -40t146.5 -34.5t139.5 -46.5t117.5 -68.5t81.5 -107.5t30 -158.5q0 -170 -124 -274.5t-365 -104.5q-147 0 -281 40.5t-219 99.5zM303 1759h64l247 -155h2l248 155h64l-266 -213h-95z" />
<glyph unicode="&#x161;" horiz-adv-x="907" d="M90 70l39 61q57 -36 144.5 -62t179.5 -26q138 0 211 57t73 152q0 67 -35 112t-91 68t-123.5 40t-135.5 37t-124 48.5t-91 85t-35 137.5q0 123 94 201t250 78q184 0 324 -72l-33 -65q-58 30 -136.5 49.5t-154.5 19.5q-122 0 -194 -58.5t-72 -150.5q0 -59 27.5 -101t72 -64 t101.5 -40.5t116.5 -30t116.5 -33.5t101.5 -51t72 -82t27.5 -126q0 -129 -92.5 -204t-267.5 -75q-107 0 -204 27.5t-161 67.5zM147 1468h64l244 -258h2l245 258h62l-260 -319h-94z" />
<glyph unicode="&#x162;" horiz-adv-x="1310" d="M66 1360v74h1179v-74h-551v-1360h-80v1360h-548zM401 -399q166 142 224 297h65q-56 -190 -217 -332z" />
<glyph unicode="&#x163;" horiz-adv-x="731" d="M53 969v65h197v340h80v-340h307v-65h-307v-713q0 -106 40 -159.5t136 -53.5q77 0 149 45l33 -55q-86 -58 -186 -58q-133 0 -192.5 71t-59.5 210v713h-197zM113 -399q165 141 223 297h65q-56 -190 -217 -332z" />
<glyph unicode="&#x164;" horiz-adv-x="1310" d="M66 1360v74h1179v-74h-551v-1360h-80v1360h-548zM344 1759h64l247 -155h2l248 155h64l-267 -213h-94z" />
<glyph unicode="&#x165;" horiz-adv-x="731" d="M53 969v65h197v340h80v-340h307v-65h-307v-713q0 -106 40 -159.5t136 -53.5q77 0 149 45l33 -55q-86 -58 -186 -58q-133 0 -192.5 71t-59.5 210v713h-197zM514 1403v57q28 8 61 8q71 0 106.5 -35.5t37.5 -95.5q0 -45 -32.5 -97t-84.5 -97h-61q50 50 79 99.5t29 86.5 q0 36 -21 58t-65 22q-22 0 -49 -6z" />
<glyph unicode="&#x166;" horiz-adv-x="1310" d="M66 1360v74h1179v-74h-551v-1360h-80v688h-370v62h370v610h-548zM696 688v62h371v-62h-371z" />
<glyph unicode="&#x167;" horiz-adv-x="731" d="M53 969v65h197v340h80v-340h307v-65h-307v-318h284v-63h-284v-332q0 -106 40 -159.5t136 -53.5q77 0 149 45l33 -55q-86 -58 -186 -58q-133 0 -192.5 71t-59.5 210v332h-176v63h176v318h-197z" />
<glyph unicode="&#x168;" horiz-adv-x="1454" d="M184 520v914h80v-914q0 -223 132 -348t331 -125t331 125t132 348v914h80v-914q0 -132 -42.5 -236.5t-116.5 -171.5t-172 -102t-212 -35t-212 35t-172 102t-116.5 171.5t-42.5 236.5zM459 1569q-10 89 29 140.5t106 51.5q33 0 64.5 -15.5t56 -37.5t48 -44.5t49 -38 t50.5 -15.5q40 0 62.5 34.5t15.5 92.5h59q10 -89 -29.5 -141t-107.5 -52q-39 0 -78 24t-65 52t-59.5 52t-63.5 24q-40 0 -63 -34.5t-17 -92.5h-57z" />
<glyph unicode="&#x169;" d="M176 315v719h80v-721q0 -130 58 -200t192 -70q219 0 383 201v790h80v-1034h-66l-12 160q-181 -185 -395 -185q-170 0 -245 89t-75 251zM303 1225q-9 90 30 141t107 51q39 0 78 -23.5t65.5 -52t60 -52t63.5 -23.5q40 0 62 34t15 93h60q9 -90 -30 -141.5t-107 -51.5 q-39 0 -78 23.5t-65.5 51.5t-60 51.5t-63.5 23.5q-40 0 -62.5 -33.5t-15.5 -91.5h-59z" />
<glyph unicode="&#x16a;" horiz-adv-x="1454" d="M184 520v914h80v-914q0 -223 132 -348t331 -125t331 125t132 348v914h80v-914q0 -132 -42.5 -236.5t-116.5 -171.5t-172 -102t-212 -35t-212 35t-172 102t-116.5 171.5t-42.5 236.5zM446 1620v66h562v-66h-562z" />
<glyph unicode="&#x16b;" d="M176 315v719h80v-721q0 -130 58 -200t192 -70q219 0 383 201v790h80v-1034h-66l-12 160q-181 -185 -395 -185q-170 0 -245 89t-75 251zM293 1274v67h559v-67h-559z" />
<glyph unicode="&#x16c;" horiz-adv-x="1454" d="M184 520v914h80v-914q0 -223 132 -348t331 -125t331 125t132 348v914h80v-914q0 -132 -42.5 -236.5t-116.5 -171.5t-172 -102t-212 -35t-212 35t-172 102t-116.5 171.5t-42.5 236.5zM399 1759h68q24 -72 91.5 -114.5t168.5 -42.5t168.5 42.5t91.5 114.5h68 q-28 -104 -113.5 -163.5t-214.5 -59.5t-214.5 59.5t-113.5 163.5z" />
<glyph unicode="&#x16d;" d="M176 315v719h80v-721q0 -130 58 -200t192 -70q219 0 383 201v790h80v-1034h-66l-12 160q-181 -185 -395 -185q-170 0 -245 89t-75 251zM264 1468h64q12 -117 77.5 -186.5t167.5 -69.5q101 0 167.5 70t78.5 186h62q-12 -148 -96.5 -234.5t-211.5 -86.5q-129 0 -213 86.5 t-96 234.5z" />
<glyph unicode="&#x16e;" horiz-adv-x="1454" d="M184 520v914h80v-914q0 -223 132 -348t331 -125t331 125t132 348v914h80v-914q0 -132 -42.5 -236.5t-116.5 -171.5t-172 -102t-212 -35t-212 35t-172 102t-116.5 171.5t-42.5 236.5zM537 1733q0 78 56 133t134 55q79 0 135 -55t56 -133q0 -79 -55.5 -134t-135.5 -55 q-78 0 -134 55t-56 134zM584 1733q0 -60 41.5 -103t101.5 -43t101.5 43t41.5 103t-41.5 101.5t-101.5 41.5t-101.5 -41.5t-41.5 -101.5z" />
<glyph unicode="&#x16f;" d="M176 315v719h80v-721q0 -130 58 -200t192 -70q219 0 383 201v790h80v-1034h-66l-12 160q-181 -185 -395 -185q-170 0 -245 89t-75 251zM381 1335q0 78 56 133.5t134 55.5q79 0 135 -55.5t56 -133.5q0 -79 -55.5 -133.5t-135.5 -54.5q-79 0 -134.5 54.5t-55.5 133.5z M428 1335q0 -60 41.5 -102.5t101.5 -42.5t103 42.5t43 102.5t-43 102t-103 42t-101.5 -42t-41.5 -102z" />
<glyph unicode="&#x170;" horiz-adv-x="1454" d="M184 520v914h80v-914q0 -223 132 -348t331 -125t331 125t132 348v914h80v-914q0 -132 -42.5 -236.5t-116.5 -171.5t-172 -102t-212 -35t-212 35t-172 102t-116.5 171.5t-42.5 236.5zM545 1546l219 244l65 -55l-219 -189h-65zM811 1546l219 244l66 -55l-219 -189h-66z" />
<glyph unicode="&#x171;" d="M176 315v719h80v-721q0 -130 58 -200t192 -70q219 0 383 201v790h80v-1034h-66l-12 160q-181 -185 -395 -185q-170 0 -245 89t-75 251zM391 1149l281 338l63 -49l-284 -289h-60zM659 1149l281 338l64 -49l-287 -289h-58z" />
<glyph unicode="&#x172;" horiz-adv-x="1454" d="M184 520v914h80v-914q0 -223 132 -348t331 -125t331 125t132 348v914h80v-914q0 -163 -64 -282t-174 -185q-34 -20 -40.5 -24l-39 -24t-42 -28t-36.5 -28t-37 -32.5t-28 -34t-25 -39t-13.5 -40t-6.5 -45.5q0 -54 33.5 -83t89.5 -29q63 0 117 28l4 -2v-65 q-60 -29 -123 -29q-85 0 -138 44t-53 126q0 126 146 238q-64 -11 -113 -11q-114 0 -212 35t-172 102t-116.5 171.5t-42.5 236.5z" />
<glyph unicode="&#x173;" d="M176 315v719h80v-721q0 -130 58 -200t192 -70q219 0 383 201v790h80v-1034q-189 -107 -189 -246q0 -51 34.5 -79.5t82.5 -28.5q63 0 117 28l4 -2v-65q-60 -29 -123 -29q-77 0 -130.5 43.5t-53.5 122.5q0 154 190 268l-10 148q-181 -185 -395 -185q-170 0 -245 89t-75 251 z" />
<glyph unicode="&#x174;" horiz-adv-x="2080" d="M78 1434h88l420 -1340h4l403 1340h94l404 -1340h4l422 1340h86l-461 -1434h-98l-402 1331h-4l-401 -1331h-98zM729 1546l264 213h94l267 -213h-64l-248 154h-2l-247 -154h-64z" />
<glyph unicode="&#x175;" horiz-adv-x="1611" d="M57 1034h84l320 -946h2l301 946h82l303 -946h2l315 946h86l-356 -1034h-94l-295 930h-4l-295 -930h-94zM496 1149l262 319h94l260 -319h-61l-246 260h-2l-244 -260h-63z" />
<glyph unicode="&#x176;" horiz-adv-x="1310" d="M76 1434h98l479 -770h4l480 770h98l-539 -844v-590h-82v590zM344 1546l264 213h94l267 -213h-64l-248 154h-2l-247 -154h-64z" />
<glyph unicode="&#x177;" horiz-adv-x="972" d="M45 -406l25 68q49 -22 104 -22q69 0 114 31t77 116l84 221l-392 1026h88l342 -919h5l337 919h86l-475 -1263q-42 -111 -106.5 -156t-157.5 -45q-68 0 -131 24zM180 1149l262 319h95l260 -319h-62l-246 260h-2l-243 -260h-64z" />
<glyph unicode="&#x178;" horiz-adv-x="1310" d="M76 1434h98l479 -770h4l480 770h98l-539 -844v-590h-82v590zM424 1595v115h90v-115h-90zM797 1595v115h90v-115h-90z" />
<glyph unicode="&#x179;" horiz-adv-x="1314" d="M129 0v84l948 1276h-948v74h1038v-84l-946 -1276h967v-74h-1059zM588 1546l223 244l68 -55l-226 -189h-65z" />
<glyph unicode="&#x17a;" horiz-adv-x="989" d="M115 0v68l657 899h-641v67h739v-63l-657 -903h680v-68h-778zM432 1149l285 338l61 -49l-286 -289h-60z" />
<glyph unicode="&#x17b;" horiz-adv-x="1314" d="M129 0v84l948 1276h-948v74h1038v-84l-946 -1276h967v-74h-1059zM586 1595v115h96v-115h-96z" />
<glyph unicode="&#x17c;" horiz-adv-x="989" d="M115 0v68l657 899h-641v67h739v-63l-657 -903h680v-68h-778zM440 1251v115h97v-115h-97z" />
<glyph unicode="&#x17d;" horiz-adv-x="1314" d="M129 0v84l948 1276h-948v74h1038v-84l-946 -1276h967v-74h-1059zM328 1759h63l248 -155h2l248 155h63l-266 -213h-94z" />
<glyph unicode="&#x17e;" horiz-adv-x="989" d="M115 0v68l657 899h-641v67h739v-63l-657 -903h680v-68h-778zM186 1468h64l244 -258h2l245 258h62l-260 -319h-94z" />
<glyph unicode="&#x18f;" horiz-adv-x="1497" d="M141 604q0 60 6 125h1149v6q0 294 -164 472.5t-440 178.5q-107 0 -213.5 -35t-189.5 -96l-45 64q90 65 208.5 102t239.5 37q312 0 498 -197t186 -524q0 -229 -79 -401.5t-229 -266.5t-353 -94q-273 0 -423.5 170t-150.5 459zM221 664q-19 -282 111.5 -449.5t382.5 -167.5 q254 0 407 166.5t170 450.5h-1071z" />
<glyph unicode="&#x192;" horiz-adv-x="714" d="M-66 -412l21 64q48 -12 88 -12q110 0 158.5 80.5t48.5 238.5v561h-199v68h199v135q0 199 101 294t276 95q56 0 110 -14l-16 -68q-36 12 -94 12q-140 0 -218.5 -78t-78.5 -239v-137h303v-68h-303v-561q0 -203 -67 -295t-216 -92q-55 0 -113 16z" />
<glyph unicode="&#x198;" horiz-adv-x="1347" d="M190 0v1434h80v-914q41 14 79 39.5t83.5 72.5t95 126t101.5 188q52 110 109 194t110.5 137t113.5 88t112.5 50.5t111.5 20.5l2 -66q-61 -8 -116.5 -30t-120 -69.5t-129.5 -136.5t-124 -214l541 -920h-98l-482 840q-52 -103 -101.5 -174t-99 -114t-91 -66t-97.5 -42v-444 h-80z" />
<glyph unicode="&#x199;" horiz-adv-x="1030" d="M188 0v1200q0 184 76.5 268t208.5 84v-69q-94 0 -149.5 -68.5t-55.5 -214.5v-762l545 596h96l-309 -334l373 -700h-90l-334 645l-281 -303v-342h-80z" />
<glyph unicode="&#x19f;" horiz-adv-x="1652" d="M129 729q0 162 55 300t149.5 231t221.5 145.5t270 52.5q144 0 271.5 -52.5t222.5 -146t150 -231t55 -299.5q0 -172 -54 -315t-148 -238.5t-222 -148t-275 -52.5q-146 0 -273.5 52.5t-221 148t-147.5 238.5t-54 315zM211 686q7 -147 57 -268.5t131.5 -202t191 -124.5 t234.5 -44t234.5 44t192 124.5t132.5 202t56 268.5h-1229zM211 748h1229q-3 142 -53 262.5t-133 202t-194 127.5t-235 46t-235 -46t-194 -127.5t-132.5 -202t-52.5 -262.5z" />
<glyph unicode="&#x1b7;" horiz-adv-x="1280" d="M80 1358v76h1057v-82l-729 -744q108 19 180 19q291 0 451.5 -138t160.5 -387q0 -125 -51.5 -227t-141.5 -168t-208.5 -101.5t-255.5 -35.5q-242 0 -428 82l28 67q185 -79 400 -79q160 0 289.5 53.5t207.5 160.5t78 250q0 223 -143.5 340t-407.5 117q-101 0 -233 -22 l-37 63l735 756h-952z" />
<glyph unicode="&#x1cd;" horiz-adv-x="1372" d="M76 0l559 1434h104l557 -1434h-92l-153 408h-729l-154 -408h-92zM348 477h676l-336 887h-4zM373 1759h63l248 -155h2l248 155h63l-266 -213h-94z" />
<glyph unicode="&#x1ce;" horiz-adv-x="1032" d="M109 223q0 315 651 342v203q0 100 -62 161.5t-188 61.5q-160 0 -328 -92l-35 68q75 40 172 66t191 26q166 0 247 -79t81 -212v-582q0 -61 30.5 -93t85.5 -32v-61q-163 0 -188 143q-59 -73 -155.5 -120.5t-209.5 -47.5q-131 0 -211.5 67.5t-80.5 180.5zM188 225 q0 -84 61 -133t163 -49q113 0 206 49t142 121v293q-572 -23 -572 -281zM223 1468h64l243 -258h2l246 258h62l-260 -319h-95z" />
<glyph unicode="&#x1cf;" horiz-adv-x="460" d="M-82 1759h64l247 -155h2l248 155h64l-267 -213h-94zM190 0v1434h80v-1434h-80z" />
<glyph unicode="&#x1d0;" horiz-adv-x="456" d="M-80 1468h64l243 -258h2l246 258h62l-261 -319h-94zM188 0v1034h80v-1034h-80z" />
<glyph unicode="&#x1d1;" horiz-adv-x="1652" d="M129 729q0 162 55 300t149.5 231t221.5 145.5t270 52.5q144 0 271.5 -52.5t222.5 -146t150 -231t55 -299.5q0 -172 -54 -315t-148 -238.5t-222 -148t-275 -52.5q-146 0 -273.5 52.5t-221 148t-147.5 238.5t-54 315zM211 729q0 -156 47.5 -285.5t130.5 -216t195 -133.5 t241 -47q130 0 242.5 47t195.5 133.5t131 216t48 285.5q0 145 -49 269.5t-132.5 208.5t-196.5 131.5t-239 47.5q-125 0 -237.5 -47.5t-195.5 -131.5t-132 -208.5t-49 -269.5zM514 1759h64l247 -155h2l248 155h64l-267 -213h-94z" />
<glyph unicode="&#x1d2;" horiz-adv-x="1210" d="M125 532q0 238 135.5 382.5t345.5 144.5q209 0 343 -144.5t134 -382.5q0 -255 -131 -406t-346 -151q-217 0 -349 151t-132 406zM205 532q0 -222 109.5 -355.5t291.5 -133.5q179 0 288.5 133.5t109.5 355.5q0 205 -112 332t-286 127q-175 0 -288 -127t-113 -332zM295 1468 h63l244 -258h2l246 258h61l-260 -319h-94z" />
<glyph unicode="&#x1d3;" horiz-adv-x="1454" d="M184 520v914h80v-914q0 -223 132 -348t331 -125t331 125t132 348v914h80v-914q0 -132 -42.5 -236.5t-116.5 -171.5t-172 -102t-212 -35t-212 35t-172 102t-116.5 171.5t-42.5 236.5zM416 1759h63l248 -155h2l248 155h63l-266 -213h-94z" />
<glyph unicode="&#x1d4;" d="M176 315v719h80v-721q0 -130 58 -200t192 -70q219 0 383 201v790h80v-1034h-66l-12 160q-181 -185 -395 -185q-170 0 -245 89t-75 251zM264 1468h64l243 -258h2l246 258h62l-260 -319h-95z" />
<glyph unicode="&#x1de;" horiz-adv-x="1372" d="M76 0l559 1434h104l557 -1434h-92l-153 408h-729l-154 -408h-92zM348 477h676l-336 887h-4zM406 1798v66h561v-66h-561zM455 1567v114h90v-114h-90zM827 1567v114h91v-114h-91z" />
<glyph unicode="&#x1df;" horiz-adv-x="1032" d="M109 223q0 315 651 342v203q0 100 -62 161.5t-188 61.5q-160 0 -328 -92l-35 68q75 40 172 66t191 26q166 0 247 -79t81 -212v-582q0 -61 30.5 -93t85.5 -32v-61q-163 0 -188 143q-59 -73 -155.5 -120.5t-209.5 -47.5q-131 0 -211.5 67.5t-80.5 180.5zM188 225 q0 -84 61 -133t163 -49q113 0 206 49t142 121v293q-572 -23 -572 -281zM250 1495v68h559v-68h-559zM309 1225v114h90v-114h-90zM664 1225v114h90v-114h-90z" />
<glyph unicode="&#x1e2;" horiz-adv-x="2054" d="M76 0l659 1434h1155v-76h-1016l177 -590h755v-74h-733l184 -618h646v-76h-711l-119 408h-721l-182 -408h-94zM385 477h668l-256 881h-17zM696 1620v66h561v-66h-561z" />
<glyph unicode="&#x1e3;" horiz-adv-x="1769" d="M109 223q0 317 651 340v207q0 99 -62 160t-188 61q-156 0 -328 -92l-35 68q75 40 172.5 67t190.5 27q151 0 228.5 -69.5t86.5 -190.5q57 123 165 191.5t247 68.5q201 0 301 -122.5t100 -324.5q0 -17 -6 -65h-792q-3 -256 101.5 -381t297.5 -125q85 0 169 29.5t148 74.5 l41 -59q-69 -50 -165 -81.5t-193 -31.5q-302 0 -416 238q-57 -101 -168 -169.5t-252 -68.5q-133 0 -213.5 67.5t-80.5 180.5zM188 225q0 -83 62 -133.5t162 -50.5q123 0 230.5 65t150.5 177q-33 109 -33 223q-572 -23 -572 -281zM592 1274v67h559v-67h-559zM844 610h715 q2 81 -15 148.5t-54 121t-101.5 83.5t-151.5 30q-158 0 -265.5 -103t-127.5 -280z" />
<glyph unicode="&#x1e4;" horiz-adv-x="1480" d="M129 735q0 214 89 378.5t250 254.5t370 90q257 0 446 -115l-41 -63q-168 106 -405 106q-280 0 -453.5 -180t-173.5 -471q0 -316 168 -502t459 -186q117 0 221.5 28t175.5 75v219h-266v61h266v219h-453v68h529v-287h190v-61h-190v-260q-93 -63 -216.5 -98.5t-256.5 -35.5 q-326 0 -517.5 206t-191.5 554z" />
<glyph unicode="&#x1e5;" horiz-adv-x="1126" d="M-25 -109h105q27 117 199 183q-99 52 -99 149q0 43 25.5 82.5t66.5 65.5q-81 51 -127.5 132.5t-46.5 180.5q0 161 119.5 268t294.5 107q148 0 264 -82q125 89 291 84v-68q-164 5 -252 -47q113 -110 113 -262q0 -164 -121 -272.5t-295 -108.5q-108 0 -195 41 q-69 -42 -69 -108q0 -23 6.5 -42t22 -33t30.5 -24.5t44 -17.5t49 -11.5t58.5 -8t61 -5.5t66.5 -4q401 -23 450 -199h92v-63h-84q-4 -126 -132 -192t-365 -66q-220 0 -343.5 68t-129.5 190h-99v63zM152 -172q8 -93 110.5 -144t284.5 -51q198 0 308 50t114 145h-817zM158 -109 h796q-57 118 -387 132q-117 3 -215 26q-162 -50 -194 -158zM176 684q0 -134 97 -224.5t239 -90.5q143 0 241.5 90.5t98.5 224.5q0 132 -98.5 221.5t-241.5 89.5q-141 0 -238.5 -89.5t-97.5 -221.5z" />
<glyph unicode="&#x1e6;" horiz-adv-x="1480" d="M129 735q0 214 89 378.5t250 254.5t370 90q257 0 446 -115l-41 -63q-168 106 -405 106q-280 0 -453.5 -180t-173.5 -471q0 -316 168 -502t459 -186q117 0 221.5 28t175.5 75v499h-453v68h529v-608q-93 -63 -216.5 -98.5t-256.5 -35.5q-326 0 -517.5 206t-191.5 554z M469 1759h63l248 -155h2l248 155h64l-267 -213h-94z" />
<glyph unicode="&#x1e7;" horiz-adv-x="1140" d="M86 -160q0 158 205 234q-98 51 -98 149q0 43 25.5 82.5t66.5 65.5q-81 51 -127.5 132.5t-46.5 180.5q0 161 119 268t294 107q148 0 264 -82q125 89 291 84v-68q-164 5 -252 -47q113 -110 113 -262q0 -164 -121 -272.5t-295 -108.5q-107 0 -194 41q-70 -43 -70 -108 q0 -23 6.5 -42t22 -33t30.5 -24.5t44 -17.5t49 -11.5t58.5 -8t61 -5.5t66.5 -4q459 -23 459 -252q0 -130 -128 -199t-370 -69q-225 0 -349 71t-124 199zM164 -158q0 -99 103.5 -154t291.5 -55q201 0 311.5 52t110.5 149q0 171 -401 189q-117 3 -215 26q-90 -26 -145.5 -79.5 t-55.5 -127.5zM188 684q0 -134 97 -224.5t239 -90.5q143 0 241.5 90.5t98.5 224.5q0 132 -98.5 221.5t-241.5 89.5q-141 0 -238.5 -89.5t-97.5 -221.5zM276 1468h64l244 -258h2l245 258h62l-260 -319h-94z" />
<glyph unicode="&#x1e8;" horiz-adv-x="1347" d="M190 0v1434h80v-906l807 906h103l-473 -529l532 -905h-98l-486 846l-385 -430v-416h-80zM340 1759h63l248 -155h2l248 155h64l-267 -213h-94z" />
<glyph unicode="&#x1e9;" horiz-adv-x="1030" d="M-82 1845h64l247 -155h2l248 155h64l-267 -213h-94zM188 0v1546h80v-1108l545 596h96l-309 -334l373 -700h-90l-334 645l-281 -303v-342h-80z" />
<glyph unicode="&#x1ea;" horiz-adv-x="1652" d="M129 729q0 162 55 300t149.5 231t221.5 145.5t270 52.5q144 0 271.5 -52.5t222.5 -146t150 -231t55 -299.5q0 -233 -96 -407t-261 -263q-52 -30 -85 -50.5t-74 -52t-64.5 -59.5t-40 -64t-16.5 -75q0 -54 34 -83t89 -29q64 0 118 28l5 -2v-65q-60 -29 -125 -29 q-85 0 -138 44t-53 126q0 125 152 244q-77 -17 -144 -17q-146 0 -273.5 52.5t-221 148t-147.5 238.5t-54 315zM211 729q0 -156 47.5 -285.5t130.5 -216t195 -133.5t241 -47q130 0 242.5 47t195.5 133.5t131 216t48 285.5q0 145 -49 269.5t-132.5 208.5t-196.5 131.5 t-239 47.5q-125 0 -237.5 -47.5t-195.5 -131.5t-132 -208.5t-49 -269.5z" />
<glyph unicode="&#x1eb;" horiz-adv-x="1210" d="M125 532q0 238 135.5 382.5t345.5 144.5q209 0 343 -144.5t134 -382.5q0 -166 -60 -293t-169 -196q-49 -31 -78 -51t-65.5 -50t-56.5 -55.5t-34 -59t-14 -69.5q0 -54 33.5 -83t89.5 -29q63 0 117 28l4 -2v-65q-60 -29 -123 -29q-85 0 -137.5 44t-52.5 126q0 123 137 234 q-40 -7 -72 -7q-215 2 -346 153t-131 404zM205 532q0 -222 109.5 -355.5t291.5 -133.5q179 0 288.5 133.5t109.5 355.5q0 205 -112 332t-286 127q-175 0 -288 -127t-113 -332z" />
<glyph unicode="&#x1ec;" horiz-adv-x="1652" d="M129 729q0 162 55 300t149.5 231t221.5 145.5t270 52.5q144 0 271.5 -52.5t222.5 -146t150 -231t55 -299.5q0 -233 -96 -407t-261 -263q-52 -30 -85 -50.5t-74 -52t-64.5 -59.5t-40 -64t-16.5 -75q0 -54 34 -83t89 -29q64 0 118 28l5 -2v-65q-60 -29 -125 -29 q-85 0 -138 44t-53 126q0 125 152 244q-77 -17 -144 -17q-146 0 -273.5 52.5t-221 148t-147.5 238.5t-54 315zM211 729q0 -156 47.5 -285.5t130.5 -216t195 -133.5t241 -47q130 0 242.5 47t195.5 133.5t131 216t48 285.5q0 145 -49 269.5t-132.5 208.5t-196.5 131.5 t-239 47.5q-125 0 -237.5 -47.5t-195.5 -131.5t-132 -208.5t-49 -269.5zM547 1620v66h561v-66h-561z" />
<glyph unicode="&#x1ed;" horiz-adv-x="1210" d="M125 532q0 238 135.5 382.5t345.5 144.5q209 0 343 -144.5t134 -382.5q0 -166 -60 -293t-169 -196q-49 -31 -78 -51t-65.5 -50t-56.5 -55.5t-34 -59t-14 -69.5q0 -54 33.5 -83t89.5 -29q63 0 117 28l4 -2v-65q-60 -29 -123 -29q-85 0 -137.5 44t-52.5 126q0 123 137 234 q-40 -7 -72 -7q-215 2 -346 153t-131 404zM205 532q0 -222 109.5 -355.5t291.5 -133.5q179 0 288.5 133.5t109.5 355.5q0 205 -112 332t-286 127q-175 0 -288 -127t-113 -332zM324 1274v67h559v-67h-559z" />
<glyph unicode="&#x1ee;" horiz-adv-x="1280" d="M80 1358v76h1057v-82l-729 -744q108 19 180 19q291 0 451.5 -138t160.5 -387q0 -125 -51.5 -227t-141.5 -168t-208.5 -101.5t-255.5 -35.5q-242 0 -428 82l28 67q185 -79 400 -79q160 0 289.5 53.5t207.5 160.5t78 250q0 223 -143.5 340t-407.5 117q-101 0 -233 -22 l-37 63l735 756h-952zM317 1759h64l248 -155h2l248 155h63l-266 -213h-94z" />
<glyph unicode="&#x1ef;" horiz-adv-x="991" d="M72 965v69h792v-69l-538 -580q92 18 155 18q212 0 327.5 -106.5t115.5 -302.5t-141.5 -310t-362.5 -114q-178 0 -326 68l27 61q137 -59 297 -59q188 0 308 95t120 261q0 171 -99.5 257.5t-285.5 86.5q-99 0 -215 -21l-29 52l551 594h-696zM184 1468h64l244 -258h2 l245 258h62l-260 -319h-95z" />
<glyph unicode="&#x1f0;" horiz-adv-x="473" d="M-78 -420l15 68q24 -8 63 -8q94 0 149.5 68t55.5 214v1112h80v-1110q0 -184 -76 -269t-207 -85q-42 0 -80 10zM-63 1468h63l244 -258h2l246 258h61l-260 -319h-94z" />
<glyph unicode="&#x1f4;" horiz-adv-x="1480" d="M129 735q0 214 89 378.5t250 254.5t370 90q257 0 446 -115l-41 -63q-168 106 -405 106q-280 0 -453.5 -180t-173.5 -471q0 -316 168 -502t459 -186q117 0 221.5 28t175.5 75v499h-453v68h529v-608q-93 -63 -216.5 -98.5t-256.5 -35.5q-326 0 -517.5 206t-191.5 554z M731 1546l223 244l68 -55l-225 -189h-66z" />
<glyph unicode="&#x1f5;" horiz-adv-x="1140" d="M86 -160q0 158 205 234q-98 51 -98 149q0 43 25.5 82.5t66.5 65.5q-81 51 -127.5 132.5t-46.5 180.5q0 161 119 268t294 107q148 0 264 -82q125 89 291 84v-68q-164 5 -252 -47q113 -110 113 -262q0 -164 -121 -272.5t-295 -108.5q-107 0 -194 41q-70 -43 -70 -108 q0 -23 6.5 -42t22 -33t30.5 -24.5t44 -17.5t49 -11.5t58.5 -8t61 -5.5t66.5 -4q459 -23 459 -252q0 -130 -128 -199t-370 -69q-225 0 -349 71t-124 199zM164 -158q0 -99 103.5 -154t291.5 -55q201 0 311.5 52t110.5 149q0 171 -401 189q-117 3 -215 26q-90 -26 -145.5 -79.5 t-55.5 -127.5zM188 684q0 -134 97 -224.5t239 -90.5q143 0 241.5 90.5t98.5 224.5q0 132 -98.5 221.5t-241.5 89.5q-141 0 -238.5 -89.5t-97.5 -221.5zM528 1149l285 338l61 -49l-286 -289h-60z" />
<glyph unicode="&#x1fa;" horiz-adv-x="1372" d="M76 0l545 1401q-56 19 -91.5 67.5t-35.5 110.5q0 78 56 133t134 55q79 0 134.5 -55t55.5 -133q0 -62 -33.5 -109.5t-88.5 -68.5l544 -1401h-92l-153 408h-729l-154 -408h-92zM348 477h676l-336 887h-4zM541 1579q0 -60 41.5 -102.5t101.5 -42.5h12q56 5 93.5 46.5 t37.5 98.5q0 60 -41.5 101.5t-101.5 41.5t-101.5 -41.5t-41.5 -101.5zM635 1817l223 243l68 -55l-226 -188h-65z" />
<glyph unicode="&#x1fb;" horiz-adv-x="1032" d="M109 223q0 315 651 342v203q0 100 -62 161.5t-188 61.5q-160 0 -328 -92l-35 68q75 40 172 66t191 26q166 0 247 -79t81 -212v-582q0 -61 30.5 -93t85.5 -32v-61q-163 0 -188 143q-59 -73 -155.5 -120.5t-209.5 -47.5q-131 0 -211.5 67.5t-80.5 180.5zM188 225 q0 -84 61 -133t163 -49q113 0 206 49t142 121v293q-572 -23 -572 -281zM340 1323q0 78 56 133t134 55q79 0 135 -55t56 -133q0 -79 -55.5 -133.5t-135.5 -54.5q-79 0 -134.5 54.5t-55.5 133.5zM387 1323q0 -60 41.5 -102.5t101.5 -42.5t103 42.5t43 102.5t-43 101.5 t-103 41.5t-101.5 -41.5t-41.5 -101.5zM477 1571l285 338l61 -49l-286 -289h-60z" />
<glyph unicode="&#x1fc;" horiz-adv-x="2054" d="M76 0l659 1434h1155v-76h-1016l177 -590h755v-74h-733l184 -618h646v-76h-711l-119 408h-721l-182 -408h-94zM385 477h668l-256 881h-17zM926 1546l223 244l68 -55l-226 -189h-65z" />
<glyph unicode="&#x1fd;" horiz-adv-x="1769" d="M109 223q0 317 651 340v207q0 99 -62 160t-188 61q-156 0 -328 -92l-35 68q75 40 172.5 67t190.5 27q151 0 228.5 -69.5t86.5 -190.5q57 123 165 191.5t247 68.5q201 0 301 -122.5t100 -324.5q0 -17 -6 -65h-792q-3 -256 101.5 -381t297.5 -125q85 0 169 29.5t148 74.5 l41 -59q-69 -50 -165 -81.5t-193 -31.5q-302 0 -416 238q-57 -101 -168 -169.5t-252 -68.5q-133 0 -213.5 67.5t-80.5 180.5zM188 225q0 -83 62 -133.5t162 -50.5q123 0 230.5 65t150.5 177q-33 109 -33 223q-572 -23 -572 -281zM819 1149l285 338l61 -49l-286 -289h-60z M844 610h715q2 81 -15 148.5t-54 121t-101.5 83.5t-151.5 30q-158 0 -265.5 -103t-127.5 -280z" />
<glyph unicode="&#x1fe;" horiz-adv-x="1652" d="M129 729q0 162 55 300t149.5 231t221.5 145.5t270 52.5q235 0 416 -133l135 182l49 -37l-137 -184q111 -98 173.5 -240.5t62.5 -316.5q0 -172 -54 -315t-148 -238.5t-222 -148t-275 -52.5q-236 0 -413 129l-131 -178l-54 37l135 182q-110 99 -171.5 248.5t-61.5 335.5z M211 729q0 -166 53 -299t148 -223l782 1057q-156 122 -369 122q-125 0 -237.5 -47.5t-195.5 -131.5t-132 -208.5t-49 -269.5zM457 168q154 -121 368 -121q130 0 242.5 47t195.5 133.5t131 216t48 285.5q0 153 -53 280t-148 216zM776 1546l223 244l68 -55l-225 -189h-66z" />
<glyph unicode="&#x1ff;" horiz-adv-x="1210" d="M123 -72l141 191q-139 152 -139 413q0 238 135.5 382.5t345.5 144.5q169 0 289 -94l137 182l51 -39l-141 -186q141 -147 141 -390q0 -255 -131 -406t-346 -151q-169 0 -295 99l-135 -185zM205 532q0 -224 108 -354l539 725q-109 88 -246 88q-175 0 -288 -127t-113 -332z M356 133q104 -90 250 -90q179 0 288.5 133.5t109.5 355.5q0 200 -109 328zM549 1149l285 338l61 -49l-287 -289h-59z" />
<glyph unicode="&#x200;" horiz-adv-x="1372" d="M76 0l559 1434h104l557 -1434h-92l-153 408h-729l-154 -408h-92zM317 1735l66 55l219 -244h-65zM348 477h676l-336 887h-4zM584 1735l65 55l221 -244h-65z" />
<glyph unicode="&#x201;" horiz-adv-x="1032" d="M102 1438l64 49l280 -338h-59zM109 223q0 315 651 342v203q0 100 -62 161.5t-188 61.5q-160 0 -328 -92l-35 68q75 40 172 66t191 26q166 0 247 -79t81 -212v-582q0 -61 30.5 -93t85.5 -32v-61q-163 0 -188 143q-59 -73 -155.5 -120.5t-209.5 -47.5q-131 0 -211.5 67.5 t-80.5 180.5zM188 225q0 -84 61 -133t163 -49q113 0 206 49t142 121v293q-572 -23 -572 -281zM371 1438l63 49l281 -338h-60z" />
<glyph unicode="&#x202;" horiz-adv-x="1372" d="M76 0l559 1434h104l557 -1434h-92l-153 408h-729l-154 -408h-92zM348 477h676l-336 887h-4zM358 1546q28 104 113.5 163.5t214.5 59.5t214.5 -59.5t113.5 -163.5h-68q-24 72 -92 115t-168 43t-168 -43t-92 -115h-68z" />
<glyph unicode="&#x203;" horiz-adv-x="1032" d="M109 223q0 315 651 342v203q0 100 -62 161.5t-188 61.5q-160 0 -328 -92l-35 68q75 40 172 66t191 26q166 0 247 -79t81 -212v-582q0 -61 30.5 -93t85.5 -32v-61q-163 0 -188 143q-59 -73 -155.5 -120.5t-209.5 -47.5q-131 0 -211.5 67.5t-80.5 180.5zM188 225 q0 -84 61 -133t163 -49q113 0 206 49t142 121v293q-572 -23 -572 -281zM221 1149q12 149 95 235t212 86t213.5 -86.5t96.5 -234.5h-64q-12 117 -78 186.5t-168 69.5q-101 0 -167 -70t-78 -186h-62z" />
<glyph unicode="&#x204;" horiz-adv-x="1298" d="M190 0v1434h943v-72h-863v-596h779v-70h-779v-624h877v-72h-957zM301 1735l66 55l219 -244h-66zM567 1735l66 55l221 -244h-66z" />
<glyph unicode="&#x205;" horiz-adv-x="1136" d="M125 532q0 239 134 384t343 145q103 0 181 -34t126 -95t71.5 -141t23.5 -177q0 -25 -5 -65h-794v-17q0 -232 101 -360.5t300 -128.5q84 0 169.5 29.5t148.5 74.5l41 -59q-69 -50 -165.5 -81.5t-195.5 -31.5q-234 0 -356.5 146.5t-122.5 410.5zM168 1438l63 49l281 -338 h-59zM209 610h717q2 81 -15 148.5t-54 121t-101.5 83.5t-151.5 30q-159 0 -266 -103t-129 -280zM436 1438l64 49l280 -338h-59z" />
<glyph unicode="&#x206;" horiz-adv-x="1296" d="M190 0v1434h943v-72h-863v-596h779v-70h-779v-624h877v-72h-957zM340 1546q28 104 113.5 163.5t214.5 59.5t214 -59.5t113 -163.5h-67q-24 72 -92 115t-168 43t-168 -43t-92 -115h-68z" />
<glyph unicode="&#x207;" horiz-adv-x="1136" d="M125 532q0 239 134 384t343 145q103 0 181 -34t126 -95t71.5 -141t23.5 -177q0 -25 -5 -65h-794v-17q0 -232 101 -360.5t300 -128.5q84 0 169.5 29.5t148.5 74.5l41 -59q-69 -50 -165.5 -81.5t-195.5 -31.5q-234 0 -356.5 146.5t-122.5 410.5zM209 610h717 q2 81 -15 148.5t-54 121t-101.5 83.5t-151.5 30q-159 0 -266 -103t-129 -280zM289 1149q12 149 95 235t212 86t213 -86.5t96 -234.5h-63q-12 117 -78 186.5t-168 69.5q-101 0 -167.5 -70t-78.5 -186h-61z" />
<glyph unicode="&#x208;" horiz-adv-x="460" d="M-137 1735l65 55l219 -244h-65zM129 1735l66 55l221 -244h-66zM190 0v1434h80v-1434h-80z" />
<glyph unicode="&#x209;" horiz-adv-x="456" d="M-203 1438l64 49l280 -338h-59zM66 1438l63 49l281 -338h-60zM188 0v1034h80v-1034h-80z" />
<glyph unicode="&#x20a;" horiz-adv-x="460" d="M-96 1546q28 104 113 163.5t214 59.5t214.5 -59.5t113.5 -163.5h-67q-24 72 -92.5 115t-168.5 43t-168 -43t-92 -115h-67zM190 0v1434h80v-1434h-80z" />
<glyph unicode="&#x20b;" horiz-adv-x="456" d="M-80 1149q12 149 95 235t212 86t213.5 -86.5t96.5 -234.5h-64q-12 117 -78 186.5t-168 69.5q-101 0 -167 -70t-78 -186h-62zM188 0v1034h80v-1034h-80z" />
<glyph unicode="&#x20c;" horiz-adv-x="1652" d="M129 729q0 162 55 300t149.5 231t221.5 145.5t270 52.5q144 0 271.5 -52.5t222.5 -146t150 -231t55 -299.5q0 -172 -54 -315t-148 -238.5t-222 -148t-275 -52.5q-146 0 -273.5 52.5t-221 148t-147.5 238.5t-54 315zM211 729q0 -156 47.5 -285.5t130.5 -216t195 -133.5 t241 -47q130 0 242.5 47t195.5 133.5t131 216t48 285.5q0 145 -49 269.5t-132.5 208.5t-196.5 131.5t-239 47.5q-125 0 -237.5 -47.5t-195.5 -131.5t-132 -208.5t-49 -269.5zM459 1735l65 55l219 -244h-65zM725 1735l66 55l221 -244h-66z" />
<glyph unicode="&#x20d;" horiz-adv-x="1210" d="M125 532q0 238 135.5 382.5t345.5 144.5q209 0 343 -144.5t134 -382.5q0 -255 -131 -406t-346 -151q-217 0 -349 151t-132 406zM174 1438l64 49l280 -338h-59zM205 532q0 -222 109.5 -355.5t291.5 -133.5q179 0 288.5 133.5t109.5 355.5q0 205 -112 332t-286 127 q-175 0 -288 -127t-113 -332zM442 1438l64 49l280 -338h-59z" />
<glyph unicode="&#x20e;" horiz-adv-x="1652" d="M129 729q0 162 55 300t149.5 231t221.5 145.5t270 52.5q144 0 271.5 -52.5t222.5 -146t150 -231t55 -299.5q0 -172 -54 -315t-148 -238.5t-222 -148t-275 -52.5q-146 0 -273.5 52.5t-221 148t-147.5 238.5t-54 315zM211 729q0 -156 47.5 -285.5t130.5 -216t195 -133.5 t241 -47q130 0 242.5 47t195.5 133.5t131 216t48 285.5q0 145 -49 269.5t-132.5 208.5t-196.5 131.5t-239 47.5q-125 0 -237.5 -47.5t-195.5 -131.5t-132 -208.5t-49 -269.5zM498 1546q28 104 113 163.5t214 59.5t214.5 -59.5t113.5 -163.5h-68q-24 72 -92 115t-168 43 t-168 -43t-92 -115h-67z" />
<glyph unicode="&#x20f;" horiz-adv-x="1210" d="M125 532q0 238 135.5 382.5t345.5 144.5q209 0 343 -144.5t134 -382.5q0 -255 -131 -406t-346 -151q-217 0 -349 151t-132 406zM205 532q0 -222 109.5 -355.5t291.5 -133.5q179 0 288.5 133.5t109.5 355.5q0 205 -112 332t-286 127q-175 0 -288 -127t-113 -332zM295 1149 q12 149 95 235t212 86t213 -86.5t96 -234.5h-63q-12 117 -78 186.5t-168 69.5q-101 0 -167.5 -70t-78.5 -186h-61z" />
<glyph unicode="&#x210;" horiz-adv-x="1366" d="M190 0v1434h572q122 0 214 -35t143.5 -95t76.5 -130.5t25 -149.5q0 -142 -84.5 -255.5t-253.5 -145.5l329 -623h-92l-317 612h-533v-612h-80zM270 680h488q101 0 177.5 30.5t120 82t64.5 110t21 121.5q0 52 -12 99.5t-40.5 92t-71 77t-108.5 52t-147 19.5h-492v-684z M297 1735l65 55l220 -244h-66zM563 1735l66 55l221 -244h-66z" />
<glyph unicode="&#x211;" horiz-adv-x="763" d="M18 1438l64 49l280 -338h-59zM180 0v1034h70l10 -182q123 209 332 209q69 0 123 -14l-17 -78q-62 16 -112 16q-197 0 -326 -219v-766h-80zM287 1438l63 49l281 -338h-60z" />
<glyph unicode="&#x212;" horiz-adv-x="1366" d="M190 0v1434h572q122 0 214 -35t143.5 -95t76.5 -130.5t25 -149.5q0 -142 -84.5 -255.5t-253.5 -145.5l329 -623h-92l-317 612h-533v-612h-80zM270 680h488q101 0 177.5 30.5t120 82t64.5 110t21 121.5q0 52 -12 99.5t-40.5 92t-71 77t-108.5 52t-147 19.5h-492v-684z M338 1546q28 104 113.5 163.5t214.5 59.5t214 -59.5t113 -163.5h-67q-24 72 -92 115t-168 43t-168 -43t-92 -115h-68z" />
<glyph unicode="&#x213;" horiz-adv-x="763" d="M139 1149q12 149 95 235t212 86t213.5 -86.5t96.5 -234.5h-64q-12 117 -78 186.5t-168 69.5q-101 0 -167 -70t-78 -186h-62zM180 0v1034h70l10 -182q123 209 332 209q69 0 123 -14l-17 -78q-62 16 -112 16q-197 0 -326 -219v-766h-80z" />
<glyph unicode="&#x214;" horiz-adv-x="1454" d="M184 520v914h80v-914q0 -223 132 -348t331 -125t331 125t132 348v914h80v-914q0 -132 -42.5 -236.5t-116.5 -171.5t-172 -102t-212 -35t-212 35t-172 102t-116.5 171.5t-42.5 236.5zM358 1735l66 55l219 -244h-65zM625 1735l65 55l221 -244h-65z" />
<glyph unicode="&#x215;" d="M143 1438l64 49l280 -338h-59zM176 315v719h80v-721q0 -130 58 -200t192 -70q219 0 383 201v790h80v-1034h-66l-12 160q-181 -185 -395 -185q-170 0 -245 89t-75 251zM412 1438l63 49l281 -338h-60z" />
<glyph unicode="&#x216;" horiz-adv-x="1454" d="M184 520v914h80v-914q0 -223 132 -348t331 -125t331 125t132 348v914h80v-914q0 -132 -42.5 -236.5t-116.5 -171.5t-172 -102t-212 -35t-212 35t-172 102t-116.5 171.5t-42.5 236.5zM399 1546q28 104 113.5 163.5t214.5 59.5t214.5 -59.5t113.5 -163.5h-68 q-24 72 -92 115t-168 43t-168 -43t-92 -115h-68z" />
<glyph unicode="&#x217;" d="M176 315v719h80v-721q0 -130 58 -200t192 -70q219 0 383 201v790h80v-1034h-66l-12 160q-181 -185 -395 -185q-170 0 -245 89t-75 251zM264 1149q12 149 95 235t212 86t213.5 -86.5t96.5 -234.5h-64q-12 117 -78 186.5t-168 69.5q-101 0 -167 -70t-78 -186h-62z" />
<glyph unicode="&#x218;" horiz-adv-x="1232" d="M121 115l43 65q79 -56 201 -94.5t256 -38.5q201 0 304 85t103 222q0 66 -26.5 118t-55.5 81.5t-99 58.5t-106.5 39t-127.5 32q-92 23 -139.5 36.5t-121.5 46t-111 70.5t-66.5 102.5t-29.5 148.5q0 161 125.5 266t339.5 105q251 0 443 -100l-35 -68q-188 96 -406 96 q-178 0 -281.5 -83.5t-103.5 -215.5q0 -77 30 -133t81.5 -88.5t117.5 -56t139 -40t146.5 -34.5t139.5 -46.5t117.5 -68.5t81.5 -107.5t30 -158.5q0 -170 -124 -274.5t-365 -104.5q-147 0 -281 40.5t-219 99.5zM512 -115q31 9 59 9q72 0 108 -36t38 -96q0 -45 -32.5 -97 t-84.5 -97h-61q108 108 108 188q0 35 -21.5 56.5t-64.5 21.5q-22 0 -49 -6v57z" />
<glyph unicode="&#x219;" horiz-adv-x="907" d="M90 70l39 61q57 -36 144.5 -62t179.5 -26q138 0 211 57t73 152q0 67 -35 112t-91 68t-123.5 40t-135.5 37t-124 48.5t-91 85t-35 137.5q0 123 94 201t250 78q184 0 324 -72l-33 -65q-58 30 -136.5 49.5t-154.5 19.5q-122 0 -194 -58.5t-72 -150.5q0 -59 27.5 -101t72 -64 t101.5 -40.5t116.5 -30t116.5 -33.5t101.5 -51t72 -82t27.5 -126q0 -129 -92.5 -204t-267.5 -75q-107 0 -204 27.5t-161 67.5zM348 -115q36 9 62 9q71 0 107 -36t36 -96q1 -45 -31 -97t-84 -97h-63q110 107 110 188q0 35 -21.5 56.5t-64.5 21.5q-21 0 -51 -6v57z" />
<glyph unicode="&#x21a;" horiz-adv-x="1310" d="M66 1360v74h1179v-74h-551v-1360h-80v1360h-548zM616 -115q32 9 60 9q72 0 107.5 -36t37.5 -96q0 -46 -32 -97.5t-84 -96.5h-62q109 109 109 188q0 35 -21.5 56.5t-64.5 21.5q-23 0 -50 -6v57z" />
<glyph unicode="&#x21b;" horiz-adv-x="731" d="M53 969v65h197v340h80v-340h307v-65h-307v-713q0 -106 40 -159.5t136 -53.5q77 0 149 45l33 -55q-86 -58 -186 -58q-133 0 -192.5 71t-59.5 210v713h-197zM266 -115q36 9 62 9q71 0 107 -36t36 -96q1 -45 -31 -97t-84 -97h-63q110 107 110 188q0 35 -21.5 56.5 t-64.5 21.5q-21 0 -51 -6v57z" />
<glyph unicode="&#x21e;" horiz-adv-x="1421" d="M190 0v1434h80v-668h881v668h80v-1434h-80v694h-881v-694h-80zM399 1759h64l248 -155h2l248 155h63l-266 -213h-94z" />
<glyph unicode="&#x21f;" horiz-adv-x="1157" d="M-84 1845h64l247 -155h2l248 155h64l-267 -213h-94zM188 0v1546h80v-674q78 87 178.5 138t215.5 51q319 0 319 -340v-721h-80v721q0 272 -250 272q-214 0 -383 -200v-793h-80z" />
<glyph unicode="&#x226;" horiz-adv-x="1372" d="M76 0l559 1434h104l557 -1434h-92l-153 408h-729l-154 -408h-92zM348 477h676l-336 887h-4zM635 1595v115h96v-115h-96z" />
<glyph unicode="&#x227;" horiz-adv-x="1032" d="M109 223q0 315 651 342v203q0 100 -62 161.5t-188 61.5q-160 0 -328 -92l-35 68q75 40 172 66t191 26q166 0 247 -79t81 -212v-582q0 -61 30.5 -93t85.5 -32v-61q-163 0 -188 143q-59 -73 -155.5 -120.5t-209.5 -47.5q-131 0 -211.5 67.5t-80.5 180.5zM188 225 q0 -84 61 -133t163 -49q113 0 206 49t142 121v293q-572 -23 -572 -281zM465 1251v115h96v-115h-96z" />
<glyph unicode="&#x22c;" horiz-adv-x="1652" d="M129 729q0 162 55 300t149.5 231t221.5 145.5t270 52.5q144 0 271.5 -52.5t222.5 -146t150 -231t55 -299.5q0 -172 -54 -315t-148 -238.5t-222 -148t-275 -52.5q-146 0 -273.5 52.5t-221 148t-147.5 238.5t-54 315zM211 729q0 -156 47.5 -285.5t130.5 -216t195 -133.5 t241 -47q130 0 242.5 47t195.5 133.5t131 216t48 285.5q0 145 -49 269.5t-132.5 208.5t-196.5 131.5t-239 47.5q-125 0 -237.5 -47.5t-195.5 -131.5t-132 -208.5t-49 -269.5zM545 1802v66h561v-66h-561zM557 1546q-10 89 29 141t106 52q33 0 64.5 -15.5t56.5 -38t48.5 -45 t49 -38t50.5 -15.5q40 0 62 34.5t15 92.5h60q10 -89 -29 -140.5t-108 -51.5q-39 0 -78 23.5t-65.5 52t-60 52t-63.5 23.5q-40 0 -63 -34.5t-17 -92.5h-57z" />
<glyph unicode="&#x22d;" horiz-adv-x="1210" d="M125 532q0 238 135.5 382.5t345.5 144.5q209 0 343 -144.5t134 -382.5q0 -255 -131 -406t-346 -151q-217 0 -349 151t-132 406zM205 532q0 -222 109.5 -355.5t291.5 -133.5q179 0 288.5 133.5t109.5 355.5q0 205 -112 332t-286 127q-175 0 -288 -127t-113 -332zM324 1491 v68h559v-68h-559zM334 1196q-9 90 30 141.5t107 51.5q32 0 63 -15.5t55.5 -38t48 -45t49 -38t50.5 -15.5q40 0 62.5 34t15.5 93h59q9 -90 -30 -141.5t-107 -51.5q-39 0 -78 23.5t-65 51.5t-59.5 51.5t-63.5 23.5q-40 0 -62.5 -33.5t-15.5 -91.5h-59z" />
<glyph unicode="&#x22e;" horiz-adv-x="1652" d="M129 729q0 162 55 300t149.5 231t221.5 145.5t270 52.5q144 0 271.5 -52.5t222.5 -146t150 -231t55 -299.5q0 -172 -54 -315t-148 -238.5t-222 -148t-275 -52.5q-146 0 -273.5 52.5t-221 148t-147.5 238.5t-54 315zM211 729q0 -156 47.5 -285.5t130.5 -216t195 -133.5 t241 -47q130 0 242.5 47t195.5 133.5t131 216t48 285.5q0 145 -49 269.5t-132.5 208.5t-196.5 131.5t-239 47.5q-125 0 -237.5 -47.5t-195.5 -131.5t-132 -208.5t-49 -269.5zM776 1595v115h96v-115h-96z" />
<glyph unicode="&#x22f;" horiz-adv-x="1210" d="M125 532q0 238 135.5 382.5t345.5 144.5q209 0 343 -144.5t134 -382.5q0 -255 -131 -406t-346 -151q-217 0 -349 151t-132 406zM205 532q0 -222 109.5 -355.5t291.5 -133.5q179 0 288.5 133.5t109.5 355.5q0 205 -112 332t-286 127q-175 0 -288 -127t-113 -332zM557 1251 v115h96v-115h-96z" />
<glyph unicode="&#x230;" horiz-adv-x="1652" d="M129 729q0 162 55 300t149.5 231t221.5 145.5t270 52.5q144 0 271.5 -52.5t222.5 -146t150 -231t55 -299.5q0 -172 -54 -315t-148 -238.5t-222 -148t-275 -52.5q-146 0 -273.5 52.5t-221 148t-147.5 238.5t-54 315zM211 729q0 -156 47.5 -285.5t130.5 -216t195 -133.5 t241 -47q130 0 242.5 47t195.5 133.5t131 216t48 285.5q0 145 -49 269.5t-132.5 208.5t-196.5 131.5t-239 47.5q-125 0 -237.5 -47.5t-195.5 -131.5t-132 -208.5t-49 -269.5zM545 1802v66h561v-66h-561zM776 1573v115h96v-115h-96z" />
<glyph unicode="&#x2c6;" horiz-adv-x="1345" d="M365 1149l262 319h94l260 -319h-61l-246 260h-2l-244 -260h-63z" />
<glyph unicode="&#x2da;" horiz-adv-x="1339" d="M479 1335q0 78 56.5 133.5t134.5 55.5q79 0 134.5 -55.5t55.5 -133.5q0 -79 -55 -133.5t-135 -54.5q-79 0 -135 54.5t-56 133.5zM526 1335q0 -60 42 -102.5t102 -42.5t102.5 42.5t42.5 102.5t-42.5 102t-102.5 42t-102 -42t-42 -102z" />
<glyph unicode="&#x2dc;" horiz-adv-x="1343" d="M401 1225q-9 90 30.5 141t107.5 51q32 0 63 -15.5t55.5 -37.5t48 -44.5t49 -38t50.5 -15.5q40 0 62.5 34t15.5 93h59q9 -90 -30 -141.5t-107 -51.5q-39 0 -78 23.5t-65 51.5t-59.5 51.5t-63.5 23.5q-40 0 -62.5 -33.5t-15.5 -91.5h-60z" />
<glyph unicode="&#x3c0;" horiz-adv-x="1478" d="M131 1018v69h1217v-69h-340v-684q0 -147 70 -209t200 -62v-65q-172 0 -261 75.5t-89 260.5v684h-398v-1018h-79v1018h-320z" />
<glyph unicode="&#x2000;" horiz-adv-x="1030" />
<glyph unicode="&#x2001;" horiz-adv-x="2060" />
<glyph unicode="&#x2002;" horiz-adv-x="1030" />
<glyph unicode="&#x2003;" horiz-adv-x="2060" />
<glyph unicode="&#x2004;" horiz-adv-x="686" />
<glyph unicode="&#x2005;" horiz-adv-x="515" />
<glyph unicode="&#x2006;" horiz-adv-x="343" />
<glyph unicode="&#x2007;" horiz-adv-x="343" />
<glyph unicode="&#x2008;" horiz-adv-x="257" />
<glyph unicode="&#x2009;" horiz-adv-x="412" />
<glyph unicode="&#x200a;" horiz-adv-x="114" />
<glyph unicode="&#x2010;" horiz-adv-x="755" d="M98 489v76h559v-76h-559z" />
<glyph unicode="&#x2011;" horiz-adv-x="755" d="M98 489v76h559v-76h-559z" />
<glyph unicode="&#x2012;" horiz-adv-x="755" d="M98 489v76h559v-76h-559z" />
<glyph unicode="&#x2013;" horiz-adv-x="1150" d="M100 489v76h953v-76h-953z" />
<glyph unicode="&#x2014;" horiz-adv-x="1880" d="M100 489v76h1678v-76h-1678z" />
<glyph unicode="&#x2018;" horiz-adv-x="409" d="M162 967v186q0 113 37 179.5t118 103.5l25 -43q-65 -37 -90 -90t-25 -140h21v-196h-86z" />
<glyph unicode="&#x2019;" horiz-adv-x="409" d="M68 1008q65 37 89.5 89.5t24.5 139.5h-20v197h86v-187q0 -112 -37.5 -178.5t-118.5 -103.5z" />
<glyph unicode="&#x201a;" horiz-adv-x="409" d="M68 -229q65 37 89.5 89.5t24.5 139.5h-20v197h86v-187q0 -112 -37.5 -178.5t-118.5 -103.5z" />
<glyph unicode="&#x201c;" horiz-adv-x="786" d="M162 967v186q0 113 37 179.5t118 103.5l25 -43q-65 -37 -90 -90t-25 -140h21v-196h-86zM539 967v186q0 113 37 179.5t118 103.5l25 -43q-65 -37 -90 -90t-25 -140h21v-196h-86z" />
<glyph unicode="&#x201d;" horiz-adv-x="786" d="M68 1008q65 37 89.5 89.5t24.5 139.5h-20v197h86v-187q0 -112 -37.5 -178.5t-118.5 -103.5zM444 1008q65 37 90 89.5t25 139.5h-20v197h86v-187q0 -112 -37.5 -178.5t-118.5 -103.5z" />
<glyph unicode="&#x201e;" horiz-adv-x="786" d="M68 -229q65 37 89.5 89.5t24.5 139.5h-20v197h86v-187q0 -112 -37.5 -178.5t-118.5 -103.5zM444 -229q65 37 90 89.5t25 139.5h-20v197h86v-187q0 -112 -37.5 -178.5t-118.5 -103.5z" />
<glyph unicode="&#x2026;" horiz-adv-x="1306" d="M162 0v197h86v-197h-86zM610 0v197h86v-197h-86zM1059 0v197h86v-197h-86z" />
<glyph unicode="&#x202f;" horiz-adv-x="412" />
<glyph unicode="&#x2030;" horiz-adv-x="2107" d="M119 842q0 112 78.5 190t191.5 78t191.5 -78t78.5 -190q0 -114 -78 -191.5t-192 -77.5t-192 77.5t-78 191.5zM182 842q0 -88 60 -148.5t149 -60.5q88 0 147.5 60.5t59.5 148.5t-59.5 147.5t-147.5 59.5q-89 0 -149 -59.5t-60 -147.5zM279 0l806 1087h76l-807 -1087h-75z M797 246q0 112 78 189t192 77q113 0 191.5 -77t78.5 -189q0 -114 -78.5 -192.5t-191.5 -78.5q-114 0 -192 78.5t-78 192.5zM858 246q0 -89 61 -149t150 -60q87 0 147 60t60 149q0 86 -60.5 146.5t-146.5 60.5q-89 0 -150 -60t-61 -147zM1448 246q0 112 78 189t192 77 q113 0 192 -77t79 -189q0 -114 -78.5 -192.5t-192.5 -78.5t-192 78.5t-78 192.5zM1511 246q0 -89 60 -149t149 -60q88 0 147.5 60t59.5 149q0 87 -60 147t-147 60q-89 0 -149 -60t-60 -147z" />
<glyph unicode="&#x2039;" horiz-adv-x="708" d="M109 518l413 518l58 -47l-379 -471l379 -473l-58 -45z" />
<glyph unicode="&#x203a;" horiz-adv-x="708" d="M129 45l379 473l-379 471l57 47l414 -518l-414 -518z" />
<glyph unicode="&#x2044;" horiz-adv-x="1263" d="M-2 0l1186 1434h82l-1184 -1434h-84z" />
<glyph unicode="&#x205f;" horiz-adv-x="515" />
<glyph unicode="&#x20ac;" horiz-adv-x="1263" d="M70 352v62h188q-12 64 -12 139q0 51 10 113h-186v61h200q51 175 196 280t335 105q208 0 364 -125l-47 -55q-132 110 -317 110q-160 0 -282 -85.5t-169 -231.5h455v-59h-471q-10 -62 -10 -113q0 -79 14 -139h467v-62h-449q51 -143 169.5 -224t277.5 -81q192 0 325 117 l56 -47q-152 -140 -383 -140q-191 0 -332 100t-195 275h-204z" />
<glyph unicode="&#x2122;" horiz-adv-x="1787" d="M76 1370v64h704v-64h-323v-694h-70v694h-311zM920 676v758h86l280 -377l281 377h86v-758h-70v665l-297 -395l-297 395v-665h-69z" />
<glyph unicode="&#x2202;" horiz-adv-x="1185" d="M131 467q0 208 118 334.5t318 126.5q119 0 224 -47.5t178 -135.5q-37 646 -396 646q-159 0 -348 -74l-30 59q192 82 376 82q90 0 162 -30.5t122 -80t87 -125.5t58 -154.5t34 -179t17 -187.5t4 -191q0 -248 -126 -391.5t-335 -143.5q-212 0 -337.5 133.5t-125.5 358.5z M211 467q0 -193 104.5 -306.5t278.5 -113.5q173 0 277 124t104 337q0 103 -2 156q-155 194 -400 194q-167 0 -264.5 -106t-97.5 -285z" />
<glyph unicode="&#x2206;" horiz-adv-x="1908" d="M131 0l825 1452l822 -1452h-1647zM256 72h1391l-691 1239z" />
<glyph unicode="&#x220f;" horiz-adv-x="1705" d="M131 1364v70h1444v-70h-320v-1364h-77v1364h-650v-1364h-77v1364h-320z" />
<glyph unicode="&#x2211;" horiz-adv-x="1366" d="M131 0v57l680 672l-645 647v58h1044v-70h-929l632 -635l-669 -659h991v-70h-1104z" />
<glyph unicode="&#x221a;" horiz-adv-x="1464" d="M0 942l373 143l245 -974l756 1323h90l-835 -1459h-47l-263 1012l-294 -119z" />
<glyph unicode="&#x221e;" horiz-adv-x="1685" d="M111 518q0 175 92 278t250 103q112 0 215.5 -87t173.5 -228q72 141 175.5 228t215.5 87q158 0 250 -103t92 -278t-92 -277t-250 -102q-111 0 -215 87t-176 227q-71 -140 -174.5 -227t-214.5 -87q-158 0 -250 102t-92 277zM184 518q0 -139 72.5 -224t189.5 -85 q105 0 201.5 87t159.5 222q-63 137 -159.5 224t-201.5 87q-117 0 -189.5 -86t-72.5 -225zM879 518q63 -136 159.5 -222.5t200.5 -86.5q117 0 189.5 85t72.5 224t-72.5 225t-189.5 86q-105 0 -201 -87t-159 -224z" />
<glyph unicode="&#x222b;" horiz-adv-x="806" d="M0 -360q153 0 235 80.5t82 246.5v1202q0 197 102 292t277 95q57 0 111 -14l-19 -65q-32 12 -92 12q-140 0 -219.5 -79t-79.5 -241v-1202q0 -204 -104.5 -299.5t-292.5 -95.5v68z" />
<glyph unicode="&#x2248;" horiz-adv-x="1253" d="M109 174q0 118 62 183t167 65q62 0 127.5 -25.5t121.5 -61.5t110 -72t110.5 -61.5t105.5 -25.5q78 0 123 50t37 157h70q0 -7 1 -19t1 -18q0 -116 -63 -181t-167 -65q-62 0 -127.5 25.5t-121.5 61.5t-110 72t-111.5 61.5t-106.5 25.5q-76 0 -121 -50.5t-37 -156.5h-69 q0 7 -1 19t-1 16zM109 690q0 117 62.5 182.5t166.5 65.5q62 0 127.5 -25.5t121.5 -61.5t110 -72t110.5 -61.5t105.5 -25.5q77 0 122.5 49.5t37.5 155.5h70q0 -6 1 -18t1 -17q0 -116 -63.5 -182t-166.5 -66q-62 0 -127.5 25.5t-121.5 61.5t-110 72t-111.5 61.5t-106.5 25.5 q-76 0 -121 -50t-37 -155h-69q0 6 -1 18t-1 17z" />
<glyph unicode="&#x2260;" horiz-adv-x="1253" d="M109 238v73h344l288 416h-632v74h682l165 235h76l-164 -235h277v-74h-328l-289 -416h617v-73h-668l-166 -238h-78l166 238h-290z" />
<glyph unicode="&#x2264;" horiz-adv-x="1320" d="M90 0v68h1092v-68h-1092zM90 514v84l1092 438v-82l-992 -397l992 -407v-82z" />
<glyph unicode="&#x2265;" horiz-adv-x="1320" d="M141 0v68h1092v-68h-1092zM141 68v82l992 407l-992 397v82l1092 -438v-84z" />
<glyph unicode="&#x25fc;" horiz-adv-x="1034" d="M0 0v1034h1034v-1034h-1034z" />
</font>
</defs>
</svg>
